<svg width="110" height="28" viewBox="0 0 110 28" fill="none" xmlns="http://www.w3.org/2000/svg">
<path d="M17.1159 13.3534C17.1277 12.436 17.37 11.5364 17.8202 10.7384C18.2705 9.94045 18.9141 9.26999 19.6911 8.78943C19.1975 8.08026 18.5462 7.49664 17.7891 7.08491C17.032 6.67319 16.1899 6.44471 15.3296 6.41762C13.4945 6.22383 11.7155 7.52213 10.7803 7.52213C9.82716 7.52213 8.38739 6.43686 6.83703 6.46896C5.83419 6.50152 4.85683 6.79484 4.00019 7.32032C3.14355 7.84581 2.43685 8.58554 1.94893 9.46744C-0.164552 13.1482 1.41192 18.5575 3.43656 21.5327C4.44948 22.9896 5.6332 24.6169 7.18225 24.5592C8.69796 24.496 9.26404 23.587 11.0938 23.587C12.9066 23.587 13.4377 24.5592 15.0181 24.5225C16.6446 24.496 17.6693 23.0592 18.6467 21.5886C19.3745 20.5505 19.9345 19.4032 20.306 18.1892C19.3611 17.7872 18.5547 17.1142 17.9874 16.2543C17.4201 15.3944 17.117 14.3855 17.1159 13.3534ZM14.1308 4.46088C15.0177 3.39 15.4546 2.01357 15.3488 0.6239C13.9939 0.767038 12.7423 1.41839 11.8435 2.44819C11.404 2.95127 11.0674 3.53654 10.853 4.17055C10.6385 4.80455 10.5504 5.47486 10.5937 6.14314C11.2713 6.15017 11.9418 6.00242 12.5545 5.71102C13.1672 5.41963 13.7062 4.99218 14.1308 4.46088ZM36.2765 20.8711H31.1038L29.8616 24.5606H27.6705L32.5701 10.9103H34.8464L39.7459 24.5606H37.5176L36.2765 20.8711ZM31.6395 19.1685H35.7397L33.7184 13.1808H33.6618L31.6395 19.1685ZM50.3271 19.5851C50.3271 22.6777 48.6814 24.6647 46.1981 24.6647C45.569 24.6978 44.9434 24.552 44.3928 24.2441C43.8423 23.9361 43.3891 23.4785 43.0851 22.9235H43.0381V27.8529H41.0072V14.6084H42.9731V16.2638H43.0104C43.3284 15.7114 43.7892 15.2562 44.344 14.9463C44.8987 14.6365 45.5266 14.4838 46.1608 14.5043C48.6718 14.5043 50.3271 16.5011 50.3271 19.5851ZM48.2396 19.5851C48.2396 17.5702 47.2045 16.2455 45.6251 16.2455C44.0733 16.2455 43.0297 17.598 43.0297 19.585C43.0297 21.5903 44.0733 22.9333 45.6251 22.9333C47.2045 22.9333 48.2396 21.6184 48.2396 19.5851ZM61.2166 19.5851C61.2166 22.6777 59.5711 24.6647 57.0877 24.6647C56.4586 24.6977 55.833 24.552 55.2825 24.244C54.7319 23.9361 54.2787 23.4785 53.9747 22.9235H53.9277V27.8529H51.8969V14.6084H53.8626V16.2638H53.9C54.2179 15.7114 54.6788 15.2562 55.2335 14.9463C55.7883 14.6365 56.4161 14.4838 57.0503 14.5043C59.5615 14.5043 61.2166 16.5011 61.2166 19.5851ZM59.1293 19.5851C59.1293 17.5702 58.0941 16.2455 56.5146 16.2455C54.9629 16.2455 53.9192 17.598 53.9192 19.585C53.9192 21.5903 54.9629 22.9333 56.5146 22.9333C58.0941 22.9333 59.1293 21.6184 59.1293 19.5851ZM68.4138 20.7573C68.5643 22.1109 69.8716 22.9998 71.658 22.9998C73.3698 22.9998 74.6014 22.1109 74.6014 20.8903C74.6014 19.8308 73.8586 19.1964 72.1 18.7617L70.3411 18.3355C67.8493 17.73 66.6924 16.5578 66.6924 14.6556C66.6924 12.3004 68.7329 10.6828 71.6303 10.6828C74.4978 10.6828 76.4636 12.3004 76.5297 14.6556H74.4796C74.3569 13.2934 73.2375 12.4711 71.6014 12.4711C69.9655 12.4711 68.846 13.3031 68.846 14.5139C68.846 15.479 69.5611 16.0469 71.3101 16.4815L72.8053 16.8509C75.5895 17.5132 76.7464 18.6382 76.7464 20.6348C76.7464 23.1886 74.7241 24.7881 71.5075 24.7881C68.498 24.7881 66.4661 23.2261 66.3349 20.7572L68.4138 20.7573ZM81.1293 12.2533V14.6084H83.0108V16.2262H81.1293V21.7127C81.1293 22.565 81.506 22.9622 82.3332 22.9622C82.5565 22.9582 82.7795 22.9425 83.0012 22.9149V24.5231C82.6294 24.5929 82.2514 24.6245 81.8732 24.6174C79.8701 24.6174 79.0889 23.8607 79.0889 21.9305V16.2262H77.6503V14.6084H79.0889V12.2533H81.1293ZM84.1005 19.5851C84.1005 16.4537 85.9339 14.4861 88.793 14.4861C91.6616 14.4861 93.4864 16.4537 93.4864 19.5851C93.4864 22.7249 91.6711 24.684 88.7928 24.684C85.9157 24.684 84.1005 22.7249 84.1005 19.5851ZM91.4171 19.5851C91.4171 17.4371 90.4385 16.1692 88.7928 16.1692C87.1473 16.1692 86.1697 17.4467 86.1697 19.5851C86.1697 21.7417 87.1473 22.9998 88.7928 22.9998C90.4385 22.9998 91.4171 21.7417 91.4171 19.5851ZM95.1607 14.6084H97.0977V16.3024H97.1447C97.2758 15.7733 97.5839 15.3058 98.0173 14.9783C98.4507 14.6509 98.983 14.4835 99.5246 14.5043C99.7586 14.5035 99.992 14.5291 100.22 14.5805V16.4913C99.9249 16.4005 99.6167 16.3588 99.3079 16.3679C99.0129 16.3558 98.7187 16.4081 98.4457 16.5212C98.1727 16.6343 97.9272 16.8055 97.7262 17.0231C97.5251 17.2406 97.3732 17.4993 97.281 17.7814C97.1887 18.0636 97.1583 18.3625 97.1917 18.6576V24.5606H95.1607V14.6084ZM109.584 21.6375C109.311 23.4442 107.562 24.684 105.324 24.684C102.445 24.684 100.659 22.7443 100.659 19.6323C100.659 16.5107 102.455 14.4861 105.238 14.4861C107.976 14.4861 109.697 16.3775 109.697 19.395V20.0949H102.709V20.2184C102.677 20.5846 102.722 20.9536 102.843 21.3008C102.963 21.648 103.156 21.9654 103.407 22.232C103.659 22.4987 103.964 22.7084 104.303 22.8472C104.641 22.9861 105.005 23.0509 105.371 23.0373C105.85 23.0826 106.332 22.9708 106.744 22.7186C107.156 22.4664 107.475 22.0872 107.655 21.6375H109.584ZM102.719 18.6672H107.665C107.683 18.3379 107.634 18.0083 107.519 17.6992C107.405 17.3901 107.228 17.1081 107 16.8709C106.772 16.6337 106.498 16.4465 106.195 16.3209C105.892 16.1954 105.566 16.1342 105.238 16.1413C104.907 16.1393 104.58 16.2033 104.274 16.3294C103.968 16.4555 103.689 16.6414 103.455 16.8762C103.221 17.1111 103.035 17.3902 102.909 17.6976C102.782 18.005 102.718 18.3346 102.719 18.6672ZM31.385 0.635662C31.8108 0.604922 32.238 0.66962 32.6359 0.82509C33.0338 0.98056 33.3925 1.22293 33.686 1.5347C33.9795 1.84648 34.2006 2.2199 34.3332 2.62803C34.4659 3.03615 34.5068 3.4688 34.4531 3.89477C34.4531 5.99013 33.3272 7.19467 31.385 7.19467H29.0297V0.635552L31.385 0.635662ZM30.0425 6.26703H31.2719C31.5761 6.2853 31.8806 6.23512 32.1631 6.12011C32.4456 6.00511 32.6991 5.82819 32.9051 5.60223C33.111 5.37627 33.2643 5.10695 33.3538 4.81388C33.4432 4.52082 33.4666 4.21137 33.4222 3.90808C33.4634 3.60598 33.4377 3.29845 33.3468 3.00752C33.256 2.7166 33.1023 2.44949 32.8968 2.22532C32.6913 2.00116 32.4391 1.82549 32.1581 1.7109C31.8772 1.59631 31.5746 1.54565 31.2719 1.56253H30.0425V6.26703ZM35.5972 4.71755C35.5662 4.39227 35.6032 4.06407 35.7058 3.75401C35.8083 3.44395 35.9742 3.15887 36.1926 2.91705C36.4111 2.67524 36.6775 2.48203 36.9745 2.34981C37.2716 2.2176 37.5929 2.1493 37.9178 2.1493C38.2426 2.1493 38.5639 2.2176 38.861 2.34981C39.158 2.48203 39.4244 2.67524 39.6429 2.91705C39.8614 3.15887 40.0272 3.44395 40.1297 3.75401C40.2323 4.06407 40.2693 4.39227 40.2383 4.71755C40.2699 5.04321 40.2335 5.37193 40.1312 5.68256C40.029 5.99319 39.8633 6.27887 39.6447 6.52123C39.4261 6.76359 39.1596 6.95726 38.8622 7.0898C38.5648 7.22233 38.2431 7.2908 37.9178 7.2908C37.5925 7.2908 37.2708 7.22233 36.9733 7.0898C36.6759 6.95726 36.4094 6.76359 36.1908 6.52123C35.9722 6.27887 35.8065 5.99319 35.7043 5.68256C35.6021 5.37193 35.5656 5.04321 35.5972 4.71755ZM39.2395 4.71755C39.2395 3.64459 38.7603 3.01715 37.9194 3.01715C37.0752 3.01715 36.6004 3.64459 36.6004 4.71755C36.6004 5.79908 37.0753 6.42169 37.9194 6.42169C38.7603 6.42169 39.2395 5.7948 39.2395 4.71755ZM46.4078 7.19456H45.4003L44.3833 3.54907H44.3065L43.2938 7.19456H42.296L40.9396 2.24472H41.9245L42.8061 6.02168H42.8786L43.8904 2.24472H44.822L45.8337 6.02168H45.9105L46.7877 2.24472H47.7589L46.4078 7.19456ZM48.8997 2.24483H49.8345V3.03111H49.9071C50.0302 2.74867 50.2379 2.51191 50.5011 2.35382C50.7643 2.19574 51.07 2.1242 51.3756 2.14919C51.615 2.13109 51.8555 2.16741 52.079 2.25546C52.3026 2.3435 52.5037 2.48102 52.6672 2.65782C52.8308 2.83463 52.9527 3.04618 53.024 3.27682C53.0952 3.50746 53.114 3.75127 53.0789 3.99019V7.19445H52.1077V4.23554C52.1077 3.44013 51.764 3.04452 51.0458 3.04452C50.8833 3.03691 50.721 3.06475 50.5701 3.12613C50.4193 3.1875 50.2834 3.28096 50.1718 3.40009C50.0602 3.51923 49.9755 3.66123 49.9236 3.81636C49.8716 3.97149 49.8536 4.13608 49.8708 4.29885V7.19456H48.8997V2.24483ZM54.6263 0.312488H55.5973V7.19456H54.6263V0.312488ZM56.9474 4.71755C56.9164 4.39222 56.9534 4.06398 57.056 3.75388C57.1585 3.44377 57.3244 3.15865 57.5429 2.91681C57.7615 2.67496 58.0278 2.48173 58.3249 2.3495C58.6221 2.21727 58.9434 2.14896 59.2683 2.14896C59.5932 2.14896 59.9145 2.21727 60.2116 2.3495C60.5087 2.48173 60.7751 2.67496 60.9936 2.91681C61.2121 3.15865 61.378 3.44377 61.4806 3.75388C61.5831 4.06398 61.6201 4.39222 61.5892 4.71755C61.6206 5.04316 61.584 5.37179 61.4817 5.68233C61.3793 5.99286 61.2136 6.27843 60.995 6.52068C60.7764 6.76294 60.5099 6.95652 60.2125 7.08899C59.9151 7.22147 59.5935 7.28991 59.2683 7.28991C58.943 7.28991 58.6214 7.22147 58.324 7.08899C58.0267 6.95652 57.7601 6.76294 57.5415 6.52068C57.323 6.27843 57.1572 5.99286 57.0549 5.68233C56.9525 5.37179 56.9159 5.04316 56.9474 4.71755ZM60.5897 4.71755C60.5897 3.64459 60.1105 3.01715 59.2696 3.01715C58.4254 3.01715 57.9506 3.64459 57.9506 4.71755C57.9506 5.79908 58.4255 6.42169 59.2696 6.42169C60.1105 6.42169 60.5897 5.7948 60.5897 4.71755ZM62.6115 5.7948C62.6115 4.90376 63.271 4.39009 64.4417 4.3171L65.7746 4.23982V3.81255C65.7746 3.28976 65.431 2.99461 64.7673 2.99461C64.2251 2.99461 63.8494 3.19478 63.7417 3.54478H62.8014C62.9006 2.69452 63.6958 2.1493 64.8121 2.1493C66.0457 2.1493 66.7415 2.76707 66.7415 3.81255V7.19456H65.8066V6.49896H65.7298C65.5738 6.74847 65.3548 6.95188 65.0952 7.08842C64.8355 7.22496 64.5445 7.28973 64.2518 7.27612C64.0452 7.29773 63.8364 7.27556 63.6389 7.21104C63.4414 7.14652 63.2595 7.04107 63.1049 6.90151C62.9504 6.76195 62.8266 6.59136 62.7416 6.40074C62.6566 6.21012 62.6123 6.00371 62.6115 5.7948ZM65.7746 5.37181V4.95795L64.573 5.03523C63.8953 5.08084 63.5879 5.31278 63.5879 5.74907C63.5879 6.19459 63.9721 6.4539 64.5004 6.4539C64.6552 6.46966 64.8116 6.45394 64.9602 6.40767C65.1088 6.36141 65.2467 6.28553 65.3656 6.18458C65.4844 6.08362 65.5819 5.95964 65.6522 5.82001C65.7225 5.68038 65.7641 5.52796 65.7746 5.37181ZM68.0179 4.71755C68.0179 3.15345 68.8172 2.16271 70.0605 2.16271C70.368 2.14845 70.6732 2.22254 70.9405 2.37632C71.2077 2.53009 71.4259 2.75721 71.5695 3.03111H71.6421V0.312378H72.6131V7.19445H71.6826V6.41235H71.6058C71.4511 6.6844 71.2253 6.90869 70.9529 7.06093C70.6805 7.21316 70.372 7.28754 70.0606 7.27601C68.8087 7.27601 68.0179 6.28527 68.0179 4.71755ZM69.0211 4.71755C69.0211 5.76732 69.5131 6.39915 70.3357 6.39915C71.1542 6.39915 71.6602 5.7583 71.6602 4.72173C71.6602 3.69021 71.149 3.04023 70.3357 3.04023C69.5183 3.04023 69.0211 3.67625 69.0211 4.71755ZM76.6312 4.71755C76.6002 4.39227 76.6372 4.06407 76.7397 3.75401C76.8423 3.44395 77.0081 3.15887 77.2266 2.91705C77.4451 2.67524 77.7114 2.48203 78.0085 2.34981C78.3056 2.2176 78.6269 2.1493 78.9517 2.1493C79.2766 2.1493 79.5978 2.2176 79.8949 2.34981C80.192 2.48203 80.4583 2.67524 80.6768 2.91705C80.8953 3.15887 81.0612 3.44395 81.1637 3.75401C81.2663 4.06407 81.3032 4.39227 81.2723 4.71755C81.3039 5.04321 81.2674 5.37193 81.1652 5.68256C81.0629 5.99319 80.8972 6.27887 80.6787 6.52123C80.4601 6.76359 80.1936 6.95726 79.8961 7.0898C79.5987 7.22233 79.277 7.2908 78.9517 7.2908C78.6264 7.2908 78.3047 7.22233 78.0073 7.0898C77.7099 6.95726 77.4433 6.76359 77.2248 6.52123C77.0062 6.27887 76.8405 5.99319 76.7383 5.68256C76.636 5.37193 76.5995 5.04321 76.6312 4.71755ZM80.2735 4.71755C80.2735 3.64459 79.7943 3.01715 78.9534 3.01715C78.1092 3.01715 77.6343 3.64459 77.6343 4.71755C77.6343 5.79908 78.1093 6.42169 78.9534 6.42169C79.7943 6.42169 80.2735 5.7948 80.2735 4.71755ZM82.5753 2.24483H83.5102V3.03111H83.5828C83.7059 2.74867 83.9135 2.51191 84.1768 2.35382C84.44 2.19574 84.7457 2.1242 85.0513 2.14919C85.2907 2.13109 85.5312 2.16741 85.7547 2.25546C85.9783 2.3435 86.1793 2.48102 86.3429 2.65782C86.5065 2.83463 86.6284 3.04618 86.6997 3.27682C86.7709 3.50746 86.7897 3.75127 86.7545 3.99019V7.19445H85.7834V4.23554C85.7834 3.44013 85.4397 3.04452 84.7215 3.04452C84.5589 3.03691 84.3967 3.06475 84.2458 3.12613C84.0949 3.1875 83.9591 3.28096 83.8475 3.40009C83.7359 3.51923 83.6512 3.66123 83.5992 3.81636C83.5473 3.97149 83.5293 4.13608 83.5465 4.29885V7.19456H82.5755L82.5753 2.24483ZM92.2421 1.01248V2.26736H93.3082V3.09014H92.2421V5.6353C92.2421 6.15381 92.4544 6.38091 92.9378 6.38091C93.0616 6.38047 93.1852 6.37291 93.3081 6.35826V7.17202C93.1337 7.2034 92.957 7.2201 92.7798 7.22193C91.6999 7.22193 91.2698 6.83973 91.2698 5.88548V3.09014H90.4886V2.26725H91.2698V1.01259L92.2421 1.01248ZM94.6346 0.312488H95.5973V3.04023H95.6741C95.8032 2.75517 96.0165 2.51707 96.285 2.35838C96.5535 2.1997 96.8641 2.12815 97.1745 2.15348C97.4127 2.14044 97.6509 2.18044 97.8719 2.27063C98.093 2.36082 98.2915 2.49897 98.4534 2.67523C98.6153 2.85149 98.7365 3.06151 98.8083 3.29031C98.8802 3.51912 98.901 3.76105 98.8692 3.99887V7.19456H97.8971V4.23982C97.8971 3.44915 97.531 3.04881 96.8448 3.04881C96.6779 3.03505 96.51 3.05813 96.3529 3.11646C96.1958 3.17478 96.0533 3.26692 95.9352 3.38645C95.8172 3.50597 95.7266 3.64999 95.6697 3.80843C95.6128 3.96686 95.591 4.13589 95.6058 4.30369V7.19456H94.6346V0.312488ZM104.532 5.858C104.4 6.3104 104.114 6.70173 103.724 6.96353C103.334 7.22533 102.866 7.34092 102.4 7.29008C102.075 7.29869 101.753 7.23624 101.455 7.10705C101.158 6.97786 100.891 6.78504 100.675 6.54196C100.459 6.29887 100.298 6.01136 100.203 5.69937C100.108 5.38739 100.082 5.0584 100.126 4.73525C100.083 4.41109 100.11 4.08138 100.204 3.76845C100.299 3.45551 100.459 3.16665 100.674 2.92144C100.889 2.67622 101.154 2.48036 101.451 2.34712C101.748 2.21389 102.07 2.14639 102.395 2.14919C103.764 2.14919 104.591 3.09014 104.591 4.64445V4.98532H101.116V5.04006C101.101 5.22171 101.123 5.40454 101.182 5.57684C101.242 5.74914 101.336 5.90711 101.459 6.04062C101.583 6.17413 101.732 6.28023 101.899 6.35212C102.065 6.424 102.245 6.46009 102.426 6.45807C102.659 6.48613 102.894 6.44406 103.102 6.33721C103.311 6.23035 103.483 6.06355 103.597 5.858H104.532ZM101.116 4.26291H103.601C103.613 4.09678 103.591 3.92992 103.535 3.77304C103.48 3.61617 103.392 3.47274 103.278 3.35198C103.164 3.23123 103.026 3.13581 102.873 3.07186C102.72 3.00791 102.555 2.97684 102.39 2.98065C102.222 2.97853 102.055 3.01024 101.9 3.07394C101.744 3.13763 101.603 3.23201 101.484 3.35151C101.365 3.47101 101.272 3.61322 101.208 3.76975C101.145 3.92627 101.114 4.09396 101.116 4.26291Z" fill="white"/>
</svg>
