<svg width="22" height="21" viewBox="0 0 22 21" fill="none" xmlns="http://www.w3.org/2000/svg">
<path d="M4.98978 15.2616C4.75588 14.9828 4.76972 14.5787 5.00787 14.3167L5.07837 14.249L16.0903 5.00891C16.3943 4.75375 16.8477 4.79341 17.1029 5.0975C17.3368 5.37624 17.3229 5.78042 17.0848 6.04238L17.0143 6.1101L6.00238 15.3502C5.69829 15.6053 5.24494 15.5657 4.98978 15.2616Z" fill="white"/>
<path d="M8.3388 5.57968C7.94328 5.54594 7.65001 5.19795 7.68375 4.80244C7.71443 4.44287 8.00481 4.16781 8.35451 4.14612L8.461 4.14739L16.6133 4.84293C16.9739 4.8737 17.2493 5.16565 17.2698 5.51642L17.2681 5.62321L16.538 13.7731C16.5026 14.1685 16.1534 14.4603 15.758 14.4249C15.3986 14.3927 15.1248 14.1012 15.1045 13.7514L15.1063 13.6449L15.7715 6.2138L8.3388 5.57968Z" fill="white"/>
</svg>
