<svg width="335" height="280" viewBox="0 0 335 280" fill="none" xmlns="http://www.w3.org/2000/svg">
<g filter="url(#filter0_bi_310_517)">
<rect width="335" height="280" rx="9.12064" fill="url(#paint0_linear_310_517)"/>
</g>
<path d="M72.156 109.56V108.54H74.58V117H73.428V109.56H72.156ZM81.8293 109.404H77.4853V112.236C77.6853 111.964 77.9733 111.748 78.3493 111.588C78.7253 111.428 79.1373 111.348 79.5853 111.348C80.1853 111.348 80.6813 111.476 81.0733 111.732C81.4733 111.98 81.7653 112.312 81.9493 112.728C82.1413 113.136 82.2373 113.592 82.2373 114.096C82.2373 114.968 81.9933 115.68 81.5053 116.232C81.0173 116.784 80.3013 117.06 79.3573 117.06C78.5093 117.06 77.8173 116.832 77.2813 116.376C76.7453 115.912 76.4453 115.292 76.3813 114.516H77.4613C77.5493 115.012 77.7533 115.4 78.0733 115.68C78.4013 115.952 78.8133 116.088 79.3093 116.088C79.9253 116.088 80.3893 115.904 80.7013 115.536C81.0133 115.168 81.1693 114.684 81.1693 114.084C81.1693 113.5 81.0093 113.044 80.6893 112.716C80.3693 112.388 79.9173 112.224 79.3333 112.224C78.9173 112.224 78.5533 112.316 78.2413 112.5C77.9293 112.676 77.6933 112.916 77.5333 113.22H76.4773V108.432H81.8293V109.404ZM93.8087 112.764C93.8087 113.62 93.6367 114.368 93.2927 115.008C92.9487 115.64 92.4407 116.132 91.7687 116.484C91.1047 116.828 90.3047 117 89.3687 117H86.6807V108.54H89.3687C90.3047 108.54 91.1047 108.712 91.7687 109.056C92.4407 109.392 92.9487 109.88 93.2927 110.52C93.6367 111.152 93.8087 111.9 93.8087 112.764ZM89.2847 116.016C90.3887 116.016 91.2327 115.732 91.8167 115.164C92.4007 114.596 92.6927 113.796 92.6927 112.764C92.6927 111.732 92.4007 110.932 91.8167 110.364C91.2407 109.788 90.3967 109.5 89.2847 109.5H87.7727V116.016H89.2847ZM97.9823 110.328C98.6223 110.328 99.1623 110.488 99.6023 110.808C100.05 111.128 100.362 111.556 100.538 112.092V110.412H101.63V117H100.538V115.32C100.362 115.856 100.05 116.284 99.6023 116.604C99.1623 116.924 98.6223 117.084 97.9823 117.084C97.3983 117.084 96.8783 116.948 96.4223 116.676C95.9663 116.404 95.6063 116.016 95.3423 115.512C95.0863 115 94.9583 114.4 94.9583 113.712C94.9583 113.024 95.0863 112.424 95.3423 111.912C95.6063 111.4 95.9663 111.008 96.4223 110.736C96.8783 110.464 97.3983 110.328 97.9823 110.328ZM98.2943 111.3C97.6223 111.3 97.0823 111.516 96.6743 111.948C96.2743 112.372 96.0743 112.96 96.0743 113.712C96.0743 114.464 96.2743 115.056 96.6743 115.488C97.0823 115.912 97.6223 116.124 98.2943 116.124C98.7263 116.124 99.1103 116.024 99.4463 115.824C99.7903 115.624 100.058 115.344 100.25 114.984C100.442 114.616 100.538 114.192 100.538 113.712C100.538 113.232 100.442 112.808 100.25 112.44C100.058 112.072 99.7903 111.792 99.4463 111.6C99.1103 111.4 98.7263 111.3 98.2943 111.3ZM103.824 110.412L105.96 115.596L107.94 110.412H109.152L105.24 120.12H104.004L105.372 116.892L102.6 110.412H103.824ZM112.217 110.328C112.961 110.328 113.557 110.524 114.005 110.916C114.461 111.3 114.737 111.82 114.833 112.476H113.789C113.741 112.084 113.577 111.764 113.297 111.516C113.025 111.26 112.657 111.132 112.193 111.132C111.801 111.132 111.493 111.228 111.269 111.42C111.053 111.604 110.945 111.856 110.945 112.176C110.945 112.416 111.017 112.612 111.161 112.764C111.313 112.908 111.497 113.02 111.713 113.1C111.937 113.172 112.241 113.252 112.625 113.34C113.113 113.452 113.505 113.568 113.801 113.688C114.105 113.8 114.361 113.984 114.569 114.24C114.785 114.496 114.893 114.84 114.893 115.272C114.893 115.808 114.689 116.244 114.281 116.58C113.881 116.916 113.345 117.084 112.673 117.084C111.889 117.084 111.249 116.896 110.753 116.52C110.257 116.144 109.965 115.62 109.877 114.948H110.933C110.973 115.348 111.145 115.672 111.449 115.92C111.761 116.168 112.169 116.292 112.673 116.292C113.049 116.292 113.341 116.196 113.549 116.004C113.765 115.812 113.873 115.56 113.873 115.248C113.873 114.992 113.797 114.788 113.645 114.636C113.493 114.484 113.305 114.368 113.081 114.288C112.857 114.208 112.549 114.124 112.157 114.036C111.669 113.924 111.277 113.812 110.981 113.7C110.693 113.588 110.445 113.412 110.237 113.172C110.037 112.924 109.937 112.592 109.937 112.176C109.937 111.624 110.141 111.18 110.549 110.844C110.957 110.5 111.513 110.328 112.217 110.328ZM122.017 110.328C122.657 110.328 123.197 110.488 123.637 110.808C124.085 111.128 124.397 111.556 124.573 112.092V110.412H125.665V117H124.573V115.32C124.397 115.856 124.085 116.284 123.637 116.604C123.197 116.924 122.657 117.084 122.017 117.084C121.433 117.084 120.913 116.948 120.457 116.676C120.001 116.404 119.641 116.016 119.377 115.512C119.121 115 118.993 114.4 118.993 113.712C118.993 113.024 119.121 112.424 119.377 111.912C119.641 111.4 120.001 111.008 120.457 110.736C120.913 110.464 121.433 110.328 122.017 110.328ZM122.329 111.3C121.657 111.3 121.117 111.516 120.709 111.948C120.309 112.372 120.109 112.96 120.109 113.712C120.109 114.464 120.309 115.056 120.709 115.488C121.117 115.912 121.657 116.124 122.329 116.124C122.761 116.124 123.145 116.024 123.481 115.824C123.825 115.624 124.093 115.344 124.285 114.984C124.477 114.616 124.573 114.192 124.573 113.712C124.573 113.232 124.477 112.808 124.285 112.44C124.093 112.072 123.825 111.792 123.481 111.6C123.145 111.4 122.761 111.3 122.329 111.3ZM130.103 110.328C130.743 110.328 131.283 110.488 131.723 110.808C132.171 111.128 132.483 111.556 132.659 112.092V110.412H133.751V117.108C133.751 117.716 133.623 118.256 133.367 118.728C133.111 119.2 132.751 119.568 132.287 119.832C131.823 120.096 131.283 120.228 130.667 120.228C129.779 120.228 129.055 120.012 128.495 119.58C127.935 119.156 127.579 118.58 127.427 117.852H128.507C128.635 118.292 128.875 118.636 129.227 118.884C129.587 119.14 130.047 119.268 130.607 119.268C131.199 119.268 131.687 119.076 132.071 118.692C132.463 118.316 132.659 117.788 132.659 117.108V115.32C132.483 115.856 132.171 116.284 131.723 116.604C131.283 116.924 130.743 117.084 130.103 117.084C129.519 117.084 128.999 116.948 128.543 116.676C128.087 116.404 127.727 116.016 127.463 115.512C127.207 115 127.079 114.4 127.079 113.712C127.079 113.024 127.207 112.424 127.463 111.912C127.727 111.4 128.087 111.008 128.543 110.736C128.999 110.464 129.519 110.328 130.103 110.328ZM130.415 111.3C129.743 111.3 129.203 111.516 128.795 111.948C128.395 112.372 128.195 112.96 128.195 113.712C128.195 114.464 128.395 115.056 128.795 115.488C129.203 115.912 129.743 116.124 130.415 116.124C130.847 116.124 131.231 116.024 131.567 115.824C131.911 115.624 132.179 115.344 132.371 114.984C132.563 114.616 132.659 114.192 132.659 113.712C132.659 113.232 132.563 112.808 132.371 112.44C132.179 112.072 131.911 111.792 131.567 111.6C131.231 111.4 130.847 111.3 130.415 111.3ZM138.477 110.328C139.109 110.328 139.673 110.464 140.169 110.736C140.673 111.008 141.065 111.4 141.345 111.912C141.633 112.424 141.777 113.024 141.777 113.712C141.777 114.4 141.633 115 141.345 115.512C141.065 116.016 140.673 116.404 140.169 116.676C139.673 116.948 139.109 117.084 138.477 117.084C137.845 117.084 137.277 116.948 136.773 116.676C136.277 116.404 135.885 116.016 135.597 115.512C135.309 115 135.165 114.4 135.165 113.712C135.165 113.024 135.309 112.424 135.597 111.912C135.885 111.4 136.277 111.008 136.773 110.736C137.277 110.464 137.845 110.328 138.477 110.328ZM138.477 111.288C138.085 111.288 137.721 111.376 137.385 111.552C137.057 111.728 136.789 112 136.581 112.368C136.381 112.728 136.281 113.176 136.281 113.712C136.281 114.24 136.381 114.688 136.581 115.056C136.789 115.416 137.057 115.684 137.385 115.86C137.721 116.036 138.085 116.124 138.477 116.124C138.869 116.124 139.229 116.036 139.557 115.86C139.893 115.684 140.161 115.416 140.361 115.056C140.569 114.688 140.673 114.24 140.673 113.712C140.673 113.176 140.569 112.728 140.361 112.368C140.161 112 139.893 111.728 139.557 111.552C139.229 111.376 138.869 111.288 138.477 111.288Z" fill="white" fill-opacity="0.7"/>
<path d="M76.92 181H78V179.068H79.2V178.12H78V172.408H76.692L72.48 178.24V179.068H76.92V181ZM73.74 178.12L76.968 173.548V178.12H73.74ZM86.2741 172.636H83.6701V181H86.2741C89.0221 181 90.7141 179.428 90.7141 176.836C90.7141 174.244 89.0221 172.636 86.2741 172.636ZM84.7621 180.1V173.524H86.2741C88.4581 173.524 89.5981 174.796 89.5981 176.836C89.5981 178.876 88.4581 180.1 86.2741 180.1H84.7621ZM91.7465 177.688C91.7465 179.728 93.1025 181.108 94.8545 181.108C96.0665 181.108 96.9185 180.484 97.3145 179.776V181H98.4185V174.424H97.3145V175.624C96.9305 174.94 96.0905 174.316 94.8665 174.316C93.1025 174.316 91.7465 175.636 91.7465 177.688ZM97.3145 177.7C97.3145 179.248 96.2825 180.148 95.0825 180.148C93.8825 180.148 92.8625 179.236 92.8625 177.688C92.8625 176.14 93.8825 175.264 95.0825 175.264C96.2825 175.264 97.3145 176.176 97.3145 177.7ZM102.76 179.752L100.696 174.424H99.4838L102.136 180.928L100.84 184.096H101.968L105.928 174.424H104.8L102.76 179.752ZM111.754 179.212C111.706 176.86 107.89 177.712 107.89 176.152C107.89 175.624 108.37 175.24 109.174 175.24C110.05 175.24 110.554 175.72 110.602 176.38H111.694C111.622 175.096 110.662 174.316 109.21 174.316C107.746 174.316 106.798 175.144 106.798 176.152C106.798 178.6 110.686 177.748 110.686 179.212C110.686 179.752 110.206 180.184 109.342 180.184C108.418 180.184 107.854 179.704 107.794 179.068H106.666C106.738 180.268 107.818 181.108 109.354 181.108C110.806 181.108 111.754 180.292 111.754 179.212ZM116.086 177.688C116.086 179.728 117.442 181.108 119.194 181.108C120.406 181.108 121.258 180.484 121.654 179.776V181H122.758V174.424H121.654V175.624C121.27 174.94 120.43 174.316 119.206 174.316C117.442 174.316 116.086 175.636 116.086 177.688ZM121.654 177.7C121.654 179.248 120.622 180.148 119.422 180.148C118.222 180.148 117.202 179.236 117.202 177.688C117.202 176.14 118.222 175.264 119.422 175.264C120.622 175.264 121.654 176.176 121.654 177.7ZM124.196 177.688C124.196 179.728 125.552 181.108 127.316 181.108C128.516 181.108 129.368 180.472 129.764 179.764V181.144C129.764 182.548 128.888 183.292 127.724 183.292C126.644 183.292 125.864 182.752 125.624 181.96H124.544C124.76 183.364 125.996 184.24 127.724 184.24C129.656 184.24 130.868 182.956 130.868 181.144V174.424H129.764V175.624C129.38 174.916 128.516 174.316 127.316 174.316C125.552 174.316 124.196 175.636 124.196 177.688ZM129.764 177.7C129.764 179.248 128.732 180.148 127.532 180.148C126.332 180.148 125.312 179.236 125.312 177.688C125.312 176.14 126.332 175.264 127.532 175.264C128.732 175.264 129.764 176.176 129.764 177.7ZM138.953 177.7C138.953 175.624 137.501 174.316 135.629 174.316C133.769 174.316 132.305 175.624 132.305 177.7C132.305 179.788 133.721 181.108 135.581 181.108C137.453 181.108 138.953 179.788 138.953 177.7ZM133.421 177.7C133.421 176.044 134.465 175.264 135.617 175.264C136.745 175.264 137.837 176.044 137.837 177.7C137.837 179.368 136.721 180.148 135.581 180.148C134.441 180.148 133.421 179.368 133.421 177.7Z" fill="white" fill-opacity="0.7"/>
<path d="M76.92 245H78V243.068H79.2V242.12H78V236.408H76.692L72.48 242.24V243.068H76.92V245ZM73.74 242.12L76.968 237.548V242.12H73.74ZM86.2741 236.636H83.6701V245H86.2741C89.0221 245 90.7141 243.428 90.7141 240.836C90.7141 238.244 89.0221 236.636 86.2741 236.636ZM84.7621 244.1V237.524H86.2741C88.4581 237.524 89.5981 238.796 89.5981 240.836C89.5981 242.876 88.4581 244.1 86.2741 244.1H84.7621ZM91.7465 241.688C91.7465 243.728 93.1025 245.108 94.8545 245.108C96.0665 245.108 96.9185 244.484 97.3145 243.776V245H98.4185V238.424H97.3145V239.624C96.9305 238.94 96.0905 238.316 94.8665 238.316C93.1025 238.316 91.7465 239.636 91.7465 241.688ZM97.3145 241.7C97.3145 243.248 96.2825 244.148 95.0825 244.148C93.8825 244.148 92.8625 243.236 92.8625 241.688C92.8625 240.14 93.8825 239.264 95.0825 239.264C96.2825 239.264 97.3145 240.176 97.3145 241.7ZM102.76 243.752L100.696 238.424H99.4838L102.136 244.928L100.84 248.096H101.968L105.928 238.424H104.8L102.76 243.752ZM111.754 243.212C111.706 240.86 107.89 241.712 107.89 240.152C107.89 239.624 108.37 239.24 109.174 239.24C110.05 239.24 110.554 239.72 110.602 240.38H111.694C111.622 239.096 110.662 238.316 109.21 238.316C107.746 238.316 106.798 239.144 106.798 240.152C106.798 242.6 110.686 241.748 110.686 243.212C110.686 243.752 110.206 244.184 109.342 244.184C108.418 244.184 107.854 243.704 107.794 243.068H106.666C106.738 244.268 107.818 245.108 109.354 245.108C110.806 245.108 111.754 244.292 111.754 243.212ZM116.086 241.688C116.086 243.728 117.442 245.108 119.194 245.108C120.406 245.108 121.258 244.484 121.654 243.776V245H122.758V238.424H121.654V239.624C121.27 238.94 120.43 238.316 119.206 238.316C117.442 238.316 116.086 239.636 116.086 241.688ZM121.654 241.7C121.654 243.248 120.622 244.148 119.422 244.148C118.222 244.148 117.202 243.236 117.202 241.688C117.202 240.14 118.222 239.264 119.422 239.264C120.622 239.264 121.654 240.176 121.654 241.7ZM124.196 241.688C124.196 243.728 125.552 245.108 127.316 245.108C128.516 245.108 129.368 244.472 129.764 243.764V245.144C129.764 246.548 128.888 247.292 127.724 247.292C126.644 247.292 125.864 246.752 125.624 245.96H124.544C124.76 247.364 125.996 248.24 127.724 248.24C129.656 248.24 130.868 246.956 130.868 245.144V238.424H129.764V239.624C129.38 238.916 128.516 238.316 127.316 238.316C125.552 238.316 124.196 239.636 124.196 241.688ZM129.764 241.7C129.764 243.248 128.732 244.148 127.532 244.148C126.332 244.148 125.312 243.236 125.312 241.688C125.312 240.14 126.332 239.264 127.532 239.264C128.732 239.264 129.764 240.176 129.764 241.7ZM138.953 241.7C138.953 239.624 137.501 238.316 135.629 238.316C133.769 238.316 132.305 239.624 132.305 241.7C132.305 243.788 133.721 245.108 135.581 245.108C137.453 245.108 138.953 243.788 138.953 241.7ZM133.421 241.7C133.421 240.044 134.465 239.264 135.617 239.264C136.745 239.264 137.837 240.044 137.837 241.7C137.837 243.368 136.721 244.148 135.581 244.148C134.441 244.148 133.421 243.368 133.421 241.7Z" fill="white" fill-opacity="0.7"/>
<path d="M253.812 102.408H259.398V101.33H253.812V102.408ZM264.449 108.218H265.205V107.084C267.109 106.958 268.089 105.628 268.089 104.326C268.089 102.38 266.591 101.974 265.205 101.624V98.208C266.059 98.39 266.521 99.02 266.605 99.622H267.963C267.823 98.208 266.801 97.27 265.205 97.13V95.968H264.449V97.13C262.699 97.242 261.551 98.32 261.551 99.832C261.551 101.764 263.049 102.17 264.449 102.534V106.034C263.455 105.88 262.993 105.194 262.923 104.466H261.565C261.593 105.95 262.769 106.93 264.449 107.084V108.218ZM266.815 104.396C266.815 105.236 266.241 105.936 265.205 106.048V102.744C266.101 103.01 266.815 103.402 266.815 104.396ZM262.853 99.762C262.853 98.768 263.511 98.264 264.449 98.18V101.414C263.553 101.134 262.853 100.756 262.853 99.762ZM270.134 106.888H276.868V105.824H272.052C273.858 104.354 276.574 102.212 276.574 99.692C276.574 97.816 275.342 96.696 273.438 96.696C271.618 96.696 270.26 97.816 270.176 99.972H271.408C271.464 98.698 272.136 97.788 273.452 97.788C274.824 97.788 275.314 98.628 275.314 99.748C275.314 101.82 272.794 103.836 270.134 105.978V106.888ZM278.705 96.864V102.576H279.909C280.245 101.778 280.987 101.246 282.009 101.246C283.479 101.246 284.221 102.086 284.221 103.528C284.221 104.914 283.535 105.95 281.995 105.95C280.805 105.95 279.979 105.32 279.741 104.256H278.495C278.747 105.894 279.965 107.028 281.981 107.028C284.347 107.028 285.439 105.46 285.439 103.5C285.439 101.932 284.655 100.154 282.191 100.154C281.197 100.154 280.301 100.602 279.881 101.176V97.984H284.795V96.864H278.705ZM287.132 101.834C287.132 104.774 287.86 107 290.66 107C293.446 107 294.174 104.774 294.174 101.834C294.174 98.936 293.446 96.724 290.66 96.724C287.86 96.724 287.132 98.936 287.132 101.834ZM292.914 101.834C292.914 104.018 292.648 105.838 290.66 105.838C288.658 105.838 288.392 104.018 288.392 101.834C288.392 99.734 288.658 97.886 290.66 97.886C292.648 97.886 292.914 99.734 292.914 101.834ZM295.027 109.002H295.881L297.449 105.236H296.049L295.027 109.002ZM299.16 104.284C299.3 105.768 300.28 107.014 302.296 107.014C304.956 107.014 305.726 105.124 305.726 101.75C305.726 98.614 304.928 96.682 302.184 96.682C300 96.682 298.852 98.082 298.852 100.014C298.852 102.156 300.238 103.318 302.1 103.318C303.192 103.318 304.2 102.828 304.606 101.974C304.648 104.942 303.85 105.95 302.366 105.95C301.19 105.95 300.518 105.334 300.336 104.284H299.16ZM302.31 102.24C300.798 102.24 300.07 101.288 300.07 99.986C300.07 98.642 300.896 97.746 302.212 97.746C303.668 97.746 304.452 98.712 304.452 100.084C304.452 101.442 303.528 102.24 302.31 102.24ZM307.488 99.426H308.734C308.86 98.446 309.574 97.774 310.764 97.774C311.982 97.774 312.626 98.446 312.626 99.412C312.626 100.588 311.716 101.106 310.022 101.12H309.686V102.184H310.008C311.828 102.184 312.822 102.73 312.822 104.158C312.822 105.194 312.178 105.992 310.82 105.992C309.476 105.992 308.692 105.166 308.566 104.088H307.334C307.488 106.048 308.916 107.07 310.834 107.07C312.948 107.07 314.04 105.838 314.04 104.27C314.04 102.814 313.242 101.946 312.066 101.666V101.596C313.13 101.358 313.858 100.448 313.858 99.286C313.858 97.83 312.78 96.682 310.806 96.682C308.93 96.682 307.614 97.69 307.488 99.426Z" fill="white"/>
<path d="M253.812 166.408H259.398V165.33H253.812V166.408ZM264.449 172.218H265.205V171.084C267.109 170.958 268.089 169.628 268.089 168.326C268.089 166.38 266.591 165.974 265.205 165.624V162.208C266.059 162.39 266.521 163.02 266.605 163.622H267.963C267.823 162.208 266.801 161.27 265.205 161.13V159.968H264.449V161.13C262.699 161.242 261.551 162.32 261.551 163.832C261.551 165.764 263.049 166.17 264.449 166.534V170.034C263.455 169.88 262.993 169.194 262.923 168.466H261.565C261.593 169.95 262.769 170.93 264.449 171.084V172.218ZM266.815 168.396C266.815 169.236 266.241 169.936 265.205 170.048V166.744C266.101 167.01 266.815 167.402 266.815 168.396ZM262.853 163.762C262.853 162.768 263.511 162.264 264.449 162.18V165.414C263.553 165.134 262.853 164.756 262.853 163.762ZM270.134 170.888H276.868V169.824H272.052C273.858 168.354 276.574 166.212 276.574 163.692C276.574 161.816 275.342 160.696 273.438 160.696C271.618 160.696 270.26 161.816 270.176 163.972H271.408C271.464 162.698 272.136 161.788 273.452 161.788C274.824 161.788 275.314 162.628 275.314 163.748C275.314 165.82 272.794 167.836 270.134 169.978V170.888ZM278.705 160.864V166.576H279.909C280.245 165.778 280.987 165.246 282.009 165.246C283.479 165.246 284.221 166.086 284.221 167.528C284.221 168.914 283.535 169.95 281.995 169.95C280.805 169.95 279.979 169.32 279.741 168.256H278.495C278.747 169.894 279.965 171.028 281.981 171.028C284.347 171.028 285.439 169.46 285.439 167.5C285.439 165.932 284.655 164.154 282.191 164.154C281.197 164.154 280.301 164.602 279.881 165.176V161.984H284.795V160.864H278.705ZM287.132 165.834C287.132 168.774 287.86 171 290.66 171C293.446 171 294.174 168.774 294.174 165.834C294.174 162.936 293.446 160.724 290.66 160.724C287.86 160.724 287.132 162.936 287.132 165.834ZM292.914 165.834C292.914 168.018 292.648 169.838 290.66 169.838C288.658 169.838 288.392 168.018 288.392 165.834C288.392 163.734 288.658 161.886 290.66 161.886C292.648 161.886 292.914 163.734 292.914 165.834ZM295.027 173.002H295.881L297.449 169.236H296.049L295.027 173.002ZM299.16 168.284C299.3 169.768 300.28 171.014 302.296 171.014C304.956 171.014 305.726 169.124 305.726 165.75C305.726 162.614 304.928 160.682 302.184 160.682C300 160.682 298.852 162.082 298.852 164.014C298.852 166.156 300.238 167.318 302.1 167.318C303.192 167.318 304.2 166.828 304.606 165.974C304.648 168.942 303.85 169.95 302.366 169.95C301.19 169.95 300.518 169.334 300.336 168.284H299.16ZM302.31 166.24C300.798 166.24 300.07 165.288 300.07 163.986C300.07 162.642 300.896 161.746 302.212 161.746C303.668 161.746 304.452 162.712 304.452 164.084C304.452 165.442 303.528 166.24 302.31 166.24ZM307.488 163.426H308.734C308.86 162.446 309.574 161.774 310.764 161.774C311.982 161.774 312.626 162.446 312.626 163.412C312.626 164.588 311.716 165.106 310.022 165.12H309.686V166.184H310.008C311.828 166.184 312.822 166.73 312.822 168.158C312.822 169.194 312.178 169.992 310.82 169.992C309.476 169.992 308.692 169.166 308.566 168.088H307.334C307.488 170.048 308.916 171.07 310.834 171.07C312.948 171.07 314.04 169.838 314.04 168.27C314.04 166.814 313.242 165.946 312.066 165.666V165.596C313.13 165.358 313.858 164.448 313.858 163.286C313.858 161.83 312.78 160.682 310.806 160.682C308.93 160.682 307.614 161.69 307.488 163.426Z" fill="white"/>
<path d="M258.39 229.33V230.408H252.79V229.33H258.39ZM264.147 229.47C264.875 229.694 265.44 229.895 265.841 230.072C266.242 230.249 266.592 230.529 266.891 230.912C267.19 231.285 267.339 231.794 267.339 232.438C267.339 232.905 267.222 233.339 266.989 233.74C266.765 234.141 266.415 234.468 265.939 234.72C265.463 234.972 264.88 235.098 264.189 235.098H264.147V236.218H263.713V235.07C262.826 234.986 262.103 234.697 261.543 234.202C260.983 233.698 260.67 233.077 260.605 232.34H261.963C262 232.732 262.168 233.101 262.467 233.446C262.775 233.782 263.19 233.992 263.713 234.076V230.492C262.994 230.277 262.434 230.086 262.033 229.918C261.641 229.741 261.296 229.465 260.997 229.092C260.708 228.719 260.563 228.219 260.563 227.594C260.563 227.081 260.694 226.628 260.955 226.236C261.216 225.844 261.585 225.541 262.061 225.326C262.537 225.111 263.088 225.004 263.713 225.004V223.8H264.147V225.018C265.015 225.083 265.706 225.349 266.219 225.816C266.732 226.283 267.036 226.847 267.129 227.51H265.757C265.692 227.155 265.524 226.838 265.253 226.558C264.982 226.278 264.614 226.101 264.147 226.026V229.47ZM261.935 227.538C261.935 228.014 262.084 228.383 262.383 228.644C262.691 228.905 263.134 229.134 263.713 229.33V225.998C263.172 225.998 262.738 226.133 262.411 226.404C262.094 226.665 261.935 227.043 261.935 227.538ZM264.161 234.104C264.74 234.104 265.188 233.95 265.505 233.642C265.822 233.334 265.981 232.942 265.981 232.466C265.981 231.971 265.822 231.589 265.505 231.318C265.188 231.047 264.735 230.819 264.147 230.632V234.104H264.161ZM268.613 234.02C270.2 232.956 271.469 231.901 272.421 230.856C273.373 229.801 273.849 228.821 273.849 227.916C273.849 227.356 273.705 226.908 273.415 226.572C273.135 226.227 272.678 226.054 272.043 226.054C271.39 226.054 270.895 226.264 270.559 226.684C270.223 227.095 270.037 227.664 269.999 228.392H268.739C268.805 227.291 269.145 226.446 269.761 225.858C270.377 225.261 271.171 224.962 272.141 224.962C273.065 224.962 273.798 225.209 274.339 225.704C274.881 226.199 275.151 226.899 275.151 227.804C275.151 228.551 274.909 229.311 274.423 230.086C273.947 230.851 273.345 231.565 272.617 232.228C271.899 232.881 271.157 233.437 270.391 233.894H275.403V234.944H268.613V234.02ZM283.417 226.138H278.349V229.442C278.582 229.125 278.918 228.873 279.357 228.686C279.795 228.499 280.276 228.406 280.799 228.406C281.499 228.406 282.077 228.555 282.535 228.854C283.001 229.143 283.342 229.531 283.557 230.016C283.781 230.492 283.893 231.024 283.893 231.612C283.893 232.629 283.608 233.46 283.039 234.104C282.469 234.748 281.634 235.07 280.533 235.07C279.543 235.07 278.736 234.804 278.111 234.272C277.485 233.731 277.135 233.007 277.061 232.102H278.321C278.423 232.681 278.661 233.133 279.035 233.46C279.417 233.777 279.898 233.936 280.477 233.936C281.195 233.936 281.737 233.721 282.101 233.292C282.465 232.863 282.647 232.298 282.647 231.598C282.647 230.917 282.46 230.385 282.087 230.002C281.713 229.619 281.186 229.428 280.505 229.428C280.019 229.428 279.595 229.535 279.231 229.75C278.867 229.955 278.591 230.235 278.405 230.59H277.173V225.004H283.417V226.138ZM285.394 230.002C285.394 231.589 285.655 232.825 286.178 233.712C286.7 234.599 287.606 235.042 288.894 235.042C290.182 235.042 291.087 234.599 291.61 233.712C292.142 232.825 292.408 231.589 292.408 230.002C292.408 228.434 292.142 227.207 291.61 226.32C291.087 225.433 290.182 224.99 288.894 224.99C287.606 224.99 286.7 225.433 286.178 226.32C285.655 227.197 285.394 228.425 285.394 230.002ZM291.148 230.002C291.148 230.814 291.087 231.495 290.966 232.046C290.854 232.587 290.634 233.021 290.308 233.348C289.981 233.675 289.51 233.838 288.894 233.838C288.287 233.838 287.82 233.675 287.494 233.348C287.167 233.021 286.943 232.587 286.822 232.046C286.71 231.495 286.654 230.814 286.654 230.002C286.654 229.199 286.71 228.527 286.822 227.986C286.943 227.445 287.167 227.015 287.494 226.698C287.82 226.371 288.287 226.208 288.894 226.208C289.51 226.208 289.981 226.371 290.308 226.698C290.634 227.015 290.854 227.445 290.966 227.986C291.087 228.527 291.148 229.199 291.148 230.002ZM294.959 234.062C295.09 234.473 295.155 234.855 295.155 235.21C295.155 235.695 295.034 236.083 294.791 236.372C294.549 236.671 294.185 236.82 293.699 236.82V236.274C293.933 236.274 294.101 236.209 294.203 236.078C294.315 235.957 294.371 235.761 294.371 235.49V235.364H293.657V234.062H294.959ZM297.883 232.228C297.967 232.816 298.172 233.269 298.499 233.586C298.825 233.903 299.273 234.062 299.843 234.062C300.627 234.062 301.219 233.759 301.621 233.152C302.022 232.545 302.223 231.584 302.223 230.268C302.223 230.016 302.218 229.825 302.209 229.694C302.078 230.254 301.761 230.702 301.257 231.038C300.753 231.374 300.16 231.542 299.479 231.542C298.499 231.542 297.729 231.248 297.169 230.66C296.609 230.072 296.329 229.251 296.329 228.196C296.329 227.58 296.45 227.02 296.693 226.516C296.935 226.012 297.304 225.615 297.799 225.326C298.303 225.027 298.923 224.878 299.661 224.878C301.079 224.878 302.05 225.317 302.573 226.194C303.105 227.062 303.371 228.257 303.371 229.778C303.371 231.514 303.1 232.839 302.559 233.754C302.017 234.659 301.112 235.112 299.843 235.112C298.9 235.112 298.158 234.846 297.617 234.314C297.085 233.773 296.772 233.077 296.679 232.228H297.883ZM302.083 228.392C302.083 227.72 301.882 227.151 301.481 226.684C301.089 226.217 300.496 225.984 299.703 225.984C299.049 225.984 298.527 226.18 298.135 226.572C297.743 226.964 297.547 227.51 297.547 228.21C297.547 228.957 297.743 229.531 298.135 229.932C298.527 230.333 299.063 230.534 299.745 230.534C300.137 230.534 300.51 230.455 300.865 230.296C301.229 230.137 301.523 229.895 301.747 229.568C301.971 229.241 302.083 228.849 302.083 228.392ZM308.346 224.864C308.981 224.864 309.527 224.976 309.984 225.2C310.441 225.424 310.787 225.732 311.02 226.124C311.253 226.516 311.37 226.959 311.37 227.454C311.37 228.07 311.188 228.588 310.824 229.008C310.469 229.428 309.947 229.68 309.256 229.764V229.848C309.975 230.035 310.535 230.324 310.936 230.716C311.347 231.108 311.552 231.649 311.552 232.34C311.552 233.152 311.281 233.815 310.74 234.328C310.199 234.841 309.419 235.098 308.402 235.098C307.385 235.098 306.559 234.837 305.924 234.314C305.299 233.782 304.93 233.007 304.818 231.99H306.078C306.162 232.606 306.395 233.096 306.778 233.46C307.17 233.824 307.697 234.006 308.36 234.006C308.985 234.006 309.466 233.847 309.802 233.53C310.138 233.203 310.306 232.783 310.306 232.27C310.306 231.654 310.063 231.187 309.578 230.87C309.102 230.543 308.421 230.38 307.534 230.38H307.198V229.316H307.534C309.251 229.316 310.11 228.742 310.11 227.594C310.11 227.09 309.951 226.689 309.634 226.39C309.317 226.091 308.878 225.942 308.318 225.942C307.758 225.942 307.287 226.105 306.904 226.432C306.521 226.749 306.297 227.221 306.232 227.846H304.986C305.051 226.913 305.373 226.185 305.952 225.662C306.54 225.13 307.338 224.864 308.346 224.864Z" fill="white"/>
<path d="M24.51 42.624H29.724V45H21.408V29.468H24.51V42.624ZM36.3441 32.658C37.3708 32.658 38.2508 32.9 38.9841 33.384C39.7174 33.868 40.2381 34.5207 40.5461 35.342V32.812H43.6261V45H40.5461V42.448C40.2381 43.2693 39.7174 43.9293 38.9841 44.428C38.2508 44.912 37.3708 45.154 36.3441 45.154C35.3174 45.154 34.3934 44.9047 33.5721 44.406C32.7508 43.9073 32.1054 43.1887 31.6361 42.25C31.1814 41.2967 30.9541 40.182 30.9541 38.906C30.9541 37.63 31.1814 36.5227 31.6361 35.584C32.1054 34.6307 32.7508 33.9047 33.5721 33.406C34.3934 32.9073 35.3174 32.658 36.3441 32.658ZM37.3121 35.364C36.3441 35.364 35.5668 35.6793 34.9801 36.31C34.3934 36.9407 34.1001 37.806 34.1001 38.906C34.1001 40.006 34.3934 40.8713 34.9801 41.502C35.5668 42.118 36.3441 42.426 37.3121 42.426C38.2508 42.426 39.0208 42.1107 39.6221 41.48C40.2381 40.8347 40.5461 39.9767 40.5461 38.906C40.5461 37.8207 40.2381 36.9627 39.6221 36.332C39.0208 35.6867 38.2508 35.364 37.3121 35.364ZM50.6393 32.658C52.1206 32.658 53.3086 33.032 54.2033 33.78C55.098 34.528 55.6553 35.5253 55.8753 36.772H52.9713C52.854 36.1853 52.59 35.716 52.1793 35.364C51.7686 35.012 51.2333 34.836 50.5733 34.836C50.0453 34.836 49.6346 34.9607 49.3413 35.21C49.048 35.4593 48.9013 35.7967 48.9013 36.222C48.9013 36.5593 49.0186 36.8307 49.2533 37.036C49.488 37.2413 49.7813 37.4027 50.1333 37.52C50.4853 37.6373 50.9913 37.7767 51.6513 37.938C52.5753 38.1433 53.3233 38.3633 53.8953 38.598C54.482 38.818 54.9806 39.1773 55.3913 39.676C55.8166 40.16 56.0293 40.82 56.0293 41.656C56.0293 42.6973 55.6186 43.5407 54.7973 44.186C53.9906 44.8313 52.898 45.154 51.5193 45.154C49.9353 45.154 48.6666 44.802 47.7133 44.098C46.76 43.3793 46.1806 42.36 45.9753 41.04H48.9453C49.0186 41.6413 49.2826 42.118 49.7373 42.47C50.192 42.8073 50.786 42.976 51.5193 42.976C52.0473 42.976 52.4506 42.8513 52.7293 42.602C53.008 42.338 53.1473 42.0007 53.1473 41.59C53.1473 41.238 53.0226 40.952 52.7733 40.732C52.5386 40.512 52.238 40.3433 51.8713 40.226C51.5193 40.1087 51.0133 39.9693 50.3533 39.808C49.444 39.6027 48.7033 39.3973 48.1313 39.192C47.574 38.972 47.09 38.6273 46.6793 38.158C46.2833 37.6887 46.0853 37.0433 46.0853 36.222C46.0853 35.166 46.4886 34.308 47.2953 33.648C48.102 32.988 49.2166 32.658 50.6393 32.658ZM64.8516 42.338V45H63.2236C61.8596 45 60.811 44.67 60.0776 44.01C59.359 43.35 58.9996 42.25 58.9996 40.71V35.43H57.3056V32.812H58.9996V29.798H62.1016V32.812H64.8296V35.43H62.1016V40.754C62.1016 41.3407 62.219 41.7513 62.4536 41.986C62.6883 42.2207 63.0843 42.338 63.6416 42.338H64.8516ZM82.4348 29.468V31.932H78.1448V45H75.0428V31.932H70.7748V29.468H82.4348ZM87.2444 35.144C87.699 34.3667 88.3004 33.758 89.0484 33.318C89.7964 32.8633 90.6324 32.636 91.5564 32.636V35.958H90.6544C88.381 35.958 87.2444 37.014 87.2444 39.126V45H84.1424V32.812H87.2444V35.144ZM98.0472 32.658C99.0739 32.658 99.9539 32.9 100.687 33.384C101.421 33.868 101.941 34.5207 102.249 35.342V32.812H105.329V45H102.249V42.448C101.941 43.2693 101.421 43.9293 100.687 44.428C99.9539 44.912 99.0739 45.154 98.0472 45.154C97.0206 45.154 96.0966 44.9047 95.2752 44.406C94.4539 43.9073 93.8086 43.1887 93.3392 42.25C92.8846 41.2967 92.6572 40.182 92.6572 38.906C92.6572 37.63 92.8846 36.5227 93.3392 35.584C93.8086 34.6307 94.4539 33.9047 95.2752 33.406C96.0966 32.9073 97.0206 32.658 98.0472 32.658ZM99.0152 35.364C98.0472 35.364 97.2699 35.6793 96.6832 36.31C96.0966 36.9407 95.8032 37.806 95.8032 38.906C95.8032 40.006 96.0966 40.8713 96.6832 41.502C97.2699 42.118 98.0472 42.426 99.0152 42.426C99.9539 42.426 100.724 42.1107 101.325 41.48C101.941 40.8347 102.249 39.9767 102.249 38.906C102.249 37.8207 101.941 36.9627 101.325 36.332C100.724 35.6867 99.9539 35.364 99.0152 35.364ZM115.4 32.636C116.808 32.636 117.93 33.098 118.766 34.022C119.602 34.946 120.02 36.244 120.02 37.916V45H116.94V38.268C116.94 37.3 116.691 36.552 116.192 36.024C115.694 35.4813 115.012 35.21 114.146 35.21C113.266 35.21 112.562 35.496 112.034 36.068C111.506 36.64 111.242 37.4613 111.242 38.532V45H108.14V32.812H111.242V35.254C111.565 34.4327 112.093 33.7947 112.826 33.34C113.574 32.8707 114.432 32.636 115.4 32.636ZM126.952 32.658C128.433 32.658 129.621 33.032 130.516 33.78C131.41 34.528 131.968 35.5253 132.188 36.772H129.284C129.166 36.1853 128.902 35.716 128.492 35.364C128.081 35.012 127.546 34.836 126.886 34.836C126.358 34.836 125.947 34.9607 125.654 35.21C125.36 35.4593 125.214 35.7967 125.214 36.222C125.214 36.5593 125.331 36.8307 125.566 37.036C125.8 37.2413 126.094 37.4027 126.446 37.52C126.798 37.6373 127.304 37.7767 127.964 37.938C128.888 38.1433 129.636 38.3633 130.208 38.598C130.794 38.818 131.293 39.1773 131.704 39.676C132.129 40.16 132.342 40.82 132.342 41.656C132.342 42.6973 131.931 43.5407 131.11 44.186C130.303 44.8313 129.21 45.154 127.832 45.154C126.248 45.154 124.979 44.802 124.026 44.098C123.072 43.3793 122.493 42.36 122.288 41.04H125.258C125.331 41.6413 125.595 42.118 126.05 42.47C126.504 42.8073 127.098 42.976 127.832 42.976C128.36 42.976 128.763 42.8513 129.042 42.602C129.32 42.338 129.46 42.0007 129.46 41.59C129.46 41.238 129.335 40.952 129.086 40.732C128.851 40.512 128.55 40.3433 128.184 40.226C127.832 40.1087 127.326 39.9693 126.666 39.808C125.756 39.6027 125.016 39.3973 124.444 39.192C123.886 38.972 123.402 38.6273 122.992 38.158C122.596 37.6887 122.398 37.0433 122.398 36.222C122.398 35.166 122.801 34.308 123.608 33.648C124.414 32.988 125.529 32.658 126.952 32.658ZM139.426 32.658C140.453 32.658 141.333 32.9 142.066 33.384C142.799 33.868 143.32 34.5207 143.628 35.342V32.812H146.708V45H143.628V42.448C143.32 43.2693 142.799 43.9293 142.066 44.428C141.333 44.912 140.453 45.154 139.426 45.154C138.399 45.154 137.475 44.9047 136.654 44.406C135.833 43.9073 135.187 43.1887 134.718 42.25C134.263 41.2967 134.036 40.182 134.036 38.906C134.036 37.63 134.263 36.5227 134.718 35.584C135.187 34.6307 135.833 33.9047 136.654 33.406C137.475 32.9073 138.399 32.658 139.426 32.658ZM140.394 35.364C139.426 35.364 138.649 35.6793 138.062 36.31C137.475 36.9407 137.182 37.806 137.182 38.906C137.182 40.006 137.475 40.8713 138.062 41.502C138.649 42.118 139.426 42.426 140.394 42.426C141.333 42.426 142.103 42.1107 142.704 41.48C143.32 40.8347 143.628 39.9767 143.628 38.906C143.628 37.8207 143.32 36.9627 142.704 36.332C142.103 35.6867 141.333 35.364 140.394 35.364ZM154.997 32.658C156.567 32.658 157.872 33.0833 158.913 33.934C159.969 34.7847 160.629 35.9433 160.893 37.41H157.615C157.483 36.7647 157.183 36.2587 156.713 35.892C156.244 35.5107 155.65 35.32 154.931 35.32C154.11 35.32 153.421 35.628 152.863 36.244C152.321 36.8453 152.049 37.7327 152.049 38.906C152.049 40.0793 152.321 40.974 152.863 41.59C153.421 42.1913 154.11 42.492 154.931 42.492C155.65 42.492 156.244 42.3087 156.713 41.942C157.183 41.5607 157.483 41.0473 157.615 40.402H160.893C160.629 41.8687 159.969 43.0273 158.913 43.878C157.872 44.7287 156.567 45.154 154.997 45.154C153.809 45.154 152.753 44.9047 151.829 44.406C150.905 43.8927 150.187 43.1667 149.673 42.228C149.16 41.2893 148.903 40.182 148.903 38.906C148.903 37.63 149.16 36.5227 149.673 35.584C150.187 34.6307 150.905 33.9047 151.829 33.406C152.753 32.9073 153.809 32.658 154.997 32.658ZM169.609 42.338V45H167.981C166.617 45 165.569 44.67 164.835 44.01C164.117 43.35 163.757 42.25 163.757 40.71V35.43H162.063V32.812H163.757V29.798H166.859V32.812H169.587V35.43H166.859V40.754C166.859 41.3407 166.977 41.7513 167.211 41.986C167.446 42.2207 167.842 42.338 168.399 42.338H169.609ZM171.49 29.314C171.49 28.8153 171.666 28.412 172.018 28.104C172.37 27.7813 172.832 27.62 173.404 27.62C173.976 27.62 174.438 27.7813 174.79 28.104C175.142 28.412 175.318 28.8153 175.318 29.314C175.318 29.798 175.142 30.2013 174.79 30.524C174.438 30.832 173.976 30.986 173.404 30.986C172.832 30.986 172.37 30.832 172.018 30.524C171.666 30.2013 171.49 29.798 171.49 29.314ZM174.944 32.812V45H171.842V32.812H174.944ZM183.382 32.658C184.57 32.658 185.633 32.9073 186.572 33.406C187.525 33.9047 188.273 34.6307 188.816 35.584C189.358 36.5227 189.63 37.63 189.63 38.906C189.63 40.182 189.358 41.2893 188.816 42.228C188.273 43.1667 187.525 43.8927 186.572 44.406C185.633 44.9047 184.57 45.154 183.382 45.154C182.194 45.154 181.123 44.9047 180.17 44.406C179.231 43.8927 178.49 43.1667 177.948 42.228C177.405 41.2893 177.134 40.182 177.134 38.906C177.134 37.63 177.405 36.5227 177.948 35.584C178.49 34.6307 179.231 33.9047 180.17 33.406C181.123 32.9073 182.194 32.658 183.382 32.658ZM183.382 35.342C182.516 35.342 181.783 35.65 181.182 36.266C180.58 36.8673 180.28 37.7473 180.28 38.906C180.28 40.0647 180.58 40.952 181.182 41.568C181.783 42.1693 182.516 42.47 183.382 42.47C184.247 42.47 184.98 42.1693 185.582 41.568C186.183 40.952 186.484 40.0647 186.484 38.906C186.484 37.7473 186.183 36.8673 185.582 36.266C184.98 35.65 184.247 35.342 183.382 35.342ZM199.082 32.636C200.49 32.636 201.612 33.098 202.448 34.022C203.284 34.946 203.702 36.244 203.702 37.916V45H200.622V38.268C200.622 37.3 200.373 36.552 199.874 36.024C199.375 35.4813 198.693 35.21 197.828 35.21C196.948 35.21 196.244 35.496 195.716 36.068C195.188 36.64 194.924 37.4613 194.924 38.532V45H191.822V32.812H194.924V35.254C195.247 34.4327 195.775 33.7947 196.508 33.34C197.256 32.8707 198.114 32.636 199.082 32.636Z" fill="white"/>
<path d="M82.96 91.336C82.96 92.456 82.7253 93.4427 82.256 94.296C81.7867 95.1493 81.104 95.816 80.208 96.296C79.3227 96.7653 78.2667 97 77.04 97H73.024V85.704H77.04C78.2667 85.704 79.3227 85.9387 80.208 86.408C81.104 86.8667 81.7867 87.5227 82.256 88.376C82.7253 89.2187 82.96 90.2053 82.96 91.336ZM76.848 94.984C78.064 94.984 79.0027 94.664 79.664 94.024C80.336 93.384 80.672 92.488 80.672 91.336C80.672 90.1733 80.336 89.272 79.664 88.632C79.0027 87.992 78.064 87.672 76.848 87.672H75.28V94.984H76.848ZM86.905 89.832C87.2357 89.2667 87.673 88.824 88.217 88.504C88.761 88.1733 89.369 88.008 90.041 88.008V90.424H89.385C87.7317 90.424 86.905 91.192 86.905 92.728V97H84.649V88.136H86.905V89.832ZM91.0336 85.592C91.0336 85.2293 91.1616 84.936 91.4176 84.712C91.6736 84.4773 92.0096 84.36 92.4256 84.36C92.8416 84.36 93.1776 84.4773 93.4336 84.712C93.6896 84.936 93.8176 85.2293 93.8176 85.592C93.8176 85.944 93.6896 86.2373 93.4336 86.472C93.1776 86.696 92.8416 86.808 92.4256 86.808C92.0096 86.808 91.6736 86.696 91.4176 86.472C91.1616 86.2373 91.0336 85.944 91.0336 85.592ZM93.5456 88.136V97H91.2896V88.136H93.5456ZM100.883 88.024C101.629 88.024 102.301 88.2053 102.899 88.568C103.496 88.9307 103.96 89.4587 104.291 90.152C104.632 90.8347 104.803 91.64 104.803 92.568C104.803 93.496 104.632 94.3067 104.291 95C103.96 95.6827 103.496 96.2053 102.899 96.568C102.301 96.9307 101.629 97.112 100.883 97.112C100.136 97.112 99.4958 96.936 98.9625 96.584C98.4398 96.2213 98.0665 95.7413 97.8425 95.144V97H95.5865V85.16H97.8425V89.976C98.0665 89.3787 98.4398 88.904 98.9625 88.552C99.4958 88.2 100.136 88.024 100.883 88.024ZM100.179 89.992C99.4958 89.992 98.9305 90.2267 98.4825 90.696C98.0452 91.1547 97.8265 91.7787 97.8265 92.568C97.8265 93.3467 98.0452 93.9707 98.4825 94.44C98.9305 94.8987 99.4958 95.128 100.179 95.128C100.883 95.128 101.448 94.904 101.875 94.456C102.301 93.9973 102.515 93.368 102.515 92.568C102.515 91.768 102.301 91.1387 101.875 90.68C101.448 90.2213 100.883 89.992 100.179 89.992ZM111.695 88.024C112.442 88.024 113.114 88.2053 113.711 88.568C114.308 88.9307 114.772 89.4587 115.103 90.152C115.444 90.8347 115.615 91.64 115.615 92.568C115.615 93.496 115.444 94.3067 115.103 95C114.772 95.6827 114.308 96.2053 113.711 96.568C113.114 96.9307 112.442 97.112 111.695 97.112C110.948 97.112 110.308 96.936 109.775 96.584C109.252 96.2213 108.879 95.7413 108.655 95.144V97H106.399V85.16H108.655V89.976C108.879 89.3787 109.252 88.904 109.775 88.552C110.308 88.2 110.948 88.024 111.695 88.024ZM110.991 89.992C110.308 89.992 109.743 90.2267 109.295 90.696C108.858 91.1547 108.639 91.7787 108.639 92.568C108.639 93.3467 108.858 93.9707 109.295 94.44C109.743 94.8987 110.308 95.128 110.991 95.128C111.695 95.128 112.26 94.904 112.687 94.456C113.114 93.9973 113.327 93.368 113.327 92.568C113.327 91.768 113.114 91.1387 112.687 90.68C112.26 90.2213 111.695 89.992 110.991 89.992ZM122.508 88.024C123.254 88.024 123.926 88.2053 124.524 88.568C125.121 88.9307 125.585 89.4587 125.916 90.152C126.257 90.8347 126.428 91.64 126.428 92.568C126.428 93.496 126.257 94.3067 125.916 95C125.585 95.6827 125.121 96.2053 124.524 96.568C123.926 96.9307 123.254 97.112 122.508 97.112C121.761 97.112 121.121 96.936 120.588 96.584C120.065 96.2213 119.692 95.7413 119.468 95.144V97H117.212V85.16H119.468V89.976C119.692 89.3787 120.065 88.904 120.588 88.552C121.121 88.2 121.761 88.024 122.508 88.024ZM121.804 89.992C121.121 89.992 120.556 90.2267 120.108 90.696C119.67 91.1547 119.452 91.7787 119.452 92.568C119.452 93.3467 119.67 93.9707 120.108 94.44C120.556 94.8987 121.121 95.128 121.804 95.128C122.508 95.128 123.073 94.904 123.5 94.456C123.926 93.9973 124.14 93.368 124.14 92.568C124.14 91.768 123.926 91.1387 123.5 90.68C123.073 90.2213 122.508 89.992 121.804 89.992ZM130.28 85.16V97H128.024V85.16H130.28ZM140.657 92.232C140.657 92.456 140.63 92.712 140.577 93H134.081C134.113 93.7893 134.326 94.3707 134.721 94.744C135.116 95.1173 135.606 95.304 136.193 95.304C136.716 95.304 137.148 95.176 137.489 94.92C137.841 94.664 138.065 94.3173 138.161 93.88H140.545C140.428 94.4987 140.177 95.0533 139.793 95.544C139.409 96.0347 138.913 96.4187 138.305 96.696C137.708 96.9733 137.041 97.112 136.305 97.112C135.441 97.112 134.673 96.9307 134.001 96.568C133.329 96.1947 132.806 95.6667 132.433 94.984C132.06 94.3013 131.873 93.496 131.873 92.568C131.873 91.64 132.06 90.8347 132.433 90.152C132.806 89.4587 133.329 88.9307 134.001 88.568C134.673 88.2053 135.441 88.024 136.305 88.024C137.18 88.024 137.942 88.2053 138.593 88.568C139.254 88.9307 139.761 89.432 140.113 90.072C140.476 90.7013 140.657 91.4213 140.657 92.232ZM138.385 92.008C138.417 91.2827 138.225 90.7333 137.809 90.36C137.404 89.9867 136.902 89.8 136.305 89.8C135.697 89.8 135.185 89.9867 134.769 90.36C134.353 90.7333 134.124 91.2827 134.081 92.008H138.385ZM147.999 92.808V97H145.743V85.704H149.855C151.188 85.704 152.191 86.024 152.863 86.664C153.545 87.304 153.887 88.1733 153.887 89.272C153.887 90.3493 153.535 91.208 152.831 91.848C152.137 92.488 151.145 92.808 149.855 92.808H147.999ZM149.615 91C150.937 91 151.599 90.424 151.599 89.272C151.599 88.7067 151.444 88.2747 151.135 87.976C150.825 87.6773 150.319 87.528 149.615 87.528H147.999V91H149.615ZM157.608 89.832C157.939 89.2667 158.376 88.824 158.92 88.504C159.464 88.1733 160.072 88.008 160.744 88.008V90.424H160.088C158.435 90.424 157.608 91.192 157.608 92.728V97H155.352V88.136H157.608V89.832ZM166.089 88.024C166.953 88.024 167.726 88.2053 168.409 88.568C169.102 88.9307 169.646 89.4587 170.041 90.152C170.435 90.8347 170.633 91.64 170.633 92.568C170.633 93.496 170.435 94.3013 170.041 94.984C169.646 95.6667 169.102 96.1947 168.409 96.568C167.726 96.9307 166.953 97.112 166.089 97.112C165.225 97.112 164.446 96.9307 163.753 96.568C163.07 96.1947 162.531 95.6667 162.137 94.984C161.742 94.3013 161.545 93.496 161.545 92.568C161.545 91.64 161.742 90.8347 162.137 90.152C162.531 89.4587 163.07 88.9307 163.753 88.568C164.446 88.2053 165.225 88.024 166.089 88.024ZM166.089 89.976C165.459 89.976 164.926 90.2 164.489 90.648C164.051 91.0853 163.833 91.7253 163.833 92.568C163.833 93.4107 164.051 94.056 164.489 94.504C164.926 94.9413 165.459 95.16 166.089 95.16C166.718 95.16 167.251 94.9413 167.689 94.504C168.126 94.056 168.345 93.4107 168.345 92.568C168.345 91.7253 168.126 91.0853 167.689 90.648C167.251 90.2 166.718 89.976 166.089 89.976Z" fill="white"/>
<path d="M80.416 149.816V157.496L75.344 149.816H73.104V161H75.344V153.336L80.416 161H82.656V149.816H80.416ZM88.6776 153.832C89.8296 153.832 90.7576 154.568 90.7896 155.736H86.5816C86.7576 154.52 87.6056 153.832 88.6776 153.832ZM92.8856 158.216H90.4696C90.1816 158.808 89.6536 159.288 88.6936 159.288C87.5736 159.288 86.6776 158.552 86.5656 157.24H93.0456C93.0936 156.952 93.1096 156.664 93.1096 156.376C93.1096 153.736 91.3016 151.992 88.7416 151.992C86.1176 151.992 84.2936 153.768 84.2936 156.568C84.2936 159.352 86.1656 161.144 88.7416 161.144C90.9336 161.144 92.4056 159.848 92.8856 158.216ZM95.0966 158.248C95.0966 160.28 96.2326 161 97.9286 161H99.3366V159.112H98.2966C97.5926 159.112 97.3526 158.856 97.3526 158.264V153.976H99.3366V152.136H97.3526V149.944H95.0966V152.136H94.0406V153.976H95.0966V158.248ZM101.188 161H103.46V153.976H105.012V152.136H103.46V151.768C103.46 150.776 103.828 150.424 104.916 150.456V148.568C102.42 148.504 101.188 149.512 101.188 151.688V152.136H100.18V153.976H101.188V161ZM106.463 161H108.703V149.16H106.463V161ZM110.917 161H113.157V152.136H110.917V161ZM112.053 151.08C112.837 151.08 113.429 150.504 113.429 149.768C113.429 149.032 112.837 148.456 112.053 148.456C111.253 148.456 110.677 149.032 110.677 149.768C110.677 150.504 111.253 151.08 112.053 151.08ZM120.266 161H122.794L119.85 156.552L122.762 152.136H120.362L118.73 154.872L116.922 152.136H114.394L117.322 156.552L114.426 161H116.826L118.442 158.248L120.266 161Z" fill="white"/>
<path d="M73.104 225H75.344V217.736L78.352 225H80.048L83.04 217.736V225H85.28V213.832H82.752L79.2 222.136L75.648 213.832H73.104V225ZM86.9186 220.536C86.9186 223.304 88.7106 225.144 90.9506 225.144C92.3586 225.144 93.3666 224.472 93.8946 223.704V225H96.1506V216.136H93.8946V217.4C93.3666 216.664 92.3906 215.992 90.9666 215.992C88.7106 215.992 86.9186 217.768 86.9186 220.536ZM93.8946 220.568C93.8946 222.248 92.7746 223.176 91.5426 223.176C90.3426 223.176 89.2066 222.216 89.2066 220.536C89.2066 218.856 90.3426 217.96 91.5426 217.96C92.7746 217.96 93.8946 218.888 93.8946 220.568ZM104.546 225H106.786V219.8C106.786 217.352 105.314 216.008 103.25 216.008C102.114 216.008 101.154 216.488 100.578 217.24V216.136H98.3384V225H100.578V220.104C100.578 218.68 101.362 217.912 102.578 217.912C103.762 217.912 104.546 218.68 104.546 220.104V225ZM117.285 216.136H115.029V221.016C115.029 222.44 114.261 223.208 113.045 223.208C111.861 223.208 111.077 222.44 111.077 221.016V216.136H108.837V221.336C108.837 223.768 110.325 225.112 112.389 225.112C113.493 225.112 114.469 224.632 115.029 223.88V225H117.285V216.136ZM119.495 225H121.735V213.16H119.495V225ZM123.948 225H126.188V216.136H123.948V225ZM125.084 215.08C125.868 215.08 126.46 214.504 126.46 213.768C126.46 213.032 125.868 212.456 125.084 212.456C124.284 212.456 123.708 213.032 123.708 213.768C123.708 214.504 124.284 215.08 125.084 215.08ZM128.641 225H130.913V217.976H132.465V216.136H130.913V215.768C130.913 214.776 131.281 214.424 132.369 214.456V212.568C129.873 212.504 128.641 213.512 128.641 215.688V216.136H127.633V217.976H128.641V225ZM137.725 217.832C138.877 217.832 139.805 218.568 139.837 219.736H135.629C135.805 218.52 136.653 217.832 137.725 217.832ZM141.933 222.216H139.517C139.229 222.808 138.701 223.288 137.741 223.288C136.621 223.288 135.725 222.552 135.613 221.24H142.093C142.141 220.952 142.157 220.664 142.157 220.376C142.157 217.736 140.349 215.992 137.789 215.992C135.164 215.992 133.34 217.768 133.34 220.568C133.34 223.352 135.213 225.144 137.789 225.144C139.981 225.144 141.453 223.848 141.933 222.216ZM147.06 219.4C147.06 222.744 149.508 225.096 152.724 225.096C155.204 225.096 157.22 223.784 157.972 221.48H155.396C154.868 222.568 153.908 223.096 152.708 223.096C150.756 223.096 149.364 221.656 149.364 219.4C149.364 217.128 150.756 215.704 152.708 215.704C153.908 215.704 154.868 216.232 155.396 217.304H157.972C157.22 215.016 155.204 213.688 152.724 213.688C149.508 213.688 147.06 216.056 147.06 219.4ZM159.309 220.536C159.309 223.304 161.101 225.144 163.341 225.144C164.749 225.144 165.757 224.472 166.285 223.704V225H168.541V216.136H166.285V217.4C165.757 216.664 164.781 215.992 163.357 215.992C161.101 215.992 159.309 217.768 159.309 220.536ZM166.285 220.568C166.285 222.248 165.165 223.176 163.933 223.176C162.733 223.176 161.597 222.216 161.597 220.536C161.597 218.856 162.733 217.96 163.933 217.96C165.165 217.96 166.285 218.888 166.285 220.568ZM177.609 222.472C177.545 219.224 172.633 220.232 172.633 218.616C172.633 218.104 173.065 217.768 173.897 217.768C174.777 217.768 175.321 218.232 175.385 218.92H177.529C177.401 217.16 176.105 215.992 173.961 215.992C171.769 215.992 170.457 217.176 170.457 218.648C170.457 221.896 175.465 220.888 175.465 222.472C175.465 222.984 174.985 223.384 174.105 223.384C173.209 223.384 172.585 222.872 172.505 222.2H170.249C170.345 223.848 171.897 225.144 174.121 225.144C176.281 225.144 177.609 223.992 177.609 222.472ZM179.448 225H181.688V220.104C181.688 218.68 182.472 217.912 183.688 217.912C184.872 217.912 185.656 218.68 185.656 220.104V225H187.896V219.8C187.896 217.352 186.44 216.008 184.44 216.008C183.256 216.008 182.264 216.488 181.688 217.24V213.16H179.448V225Z" fill="white"/>
<circle cx="40" cy="102" r="20" fill="#FDFDFE"/>
<circle cx="40" cy="166" r="20" fill="#FDFDFE"/>
<circle cx="40" cy="230" r="20" fill="#DFFFF0"/>
<path d="M243.201 106.25C242.419 107.514 240.581 107.514 239.799 106.25L236.893 101.552C236.069 100.22 237.027 98.5 238.594 98.5H244.406C245.973 98.5 246.931 100.22 246.107 101.552L243.201 106.25Z" fill="#BB2D2D"/>
<path d="M243.201 170.25C242.419 171.514 240.581 171.514 239.799 170.25L236.893 165.552C236.069 164.22 237.027 162.5 238.594 162.5H244.406C245.973 162.5 246.931 164.22 246.107 165.552L243.201 170.25Z" fill="#BB2D2D"/>
<path d="M239.799 225.75C240.581 224.486 242.419 224.486 243.201 225.75L246.107 230.448C246.931 231.78 245.973 233.5 244.406 233.5H238.594C237.027 233.5 236.069 231.78 236.893 230.448L239.799 225.75Z" fill="#1AE5BE"/>
<g clip-path="url(#clip0_310_517)">
<path d="M39.9999 83.3281C50.3124 83.3281 58.6562 91.6719 58.6562 101.969C58.6562 112.266 50.3124 120.625 39.9999 120.625C29.6874 120.625 21.3437 112.281 21.3437 101.984C21.3437 91.6875 29.6874 83.3281 39.9999 83.3281Z" fill="#E74D89"/>
<path d="M40 121.953C28.9688 121.953 20 113 20 101.984C20 90.9531 28.9688 82 40 82C51.0312 82 60 90.9531 60 101.969C60 112.984 51.0312 121.953 40 121.953ZM56.8594 104.703C56.2812 104.516 51.5781 103.125 46.2188 103.969C48.4531 110.094 49.3594 115.094 49.5312 116.125C53.375 113.547 56.1094 109.453 56.8594 104.703ZM46.6719 117.703C46.4219 116.203 45.4219 110.984 43.0312 104.766C43 104.781 42.9531 104.797 42.9219 104.797C33.2812 108.156 29.8281 114.828 29.5156 115.453C32.4062 117.703 36.0469 119.047 40 119.047C42.3594 119.062 44.625 118.578 46.6719 117.703ZM27.3125 113.406C27.7031 112.75 32.3906 105 41.2031 102.141C41.4219 102.062 41.6562 102 41.875 101.938C41.4531 100.969 40.9844 100 40.4844 99.0469C31.9531 101.594 23.6719 101.484 22.9219 101.469C22.9219 101.641 22.9062 101.812 22.9062 101.984C22.9219 106.375 24.5781 110.375 27.3125 113.406ZM23.2812 98.5C24.0469 98.5156 31.0781 98.5469 39.0781 96.4219C36.25 91.3906 33.1875 87.1719 32.75 86.5625C27.9531 88.8125 24.3906 93.2188 23.2812 98.5ZM36 85.4062C36.4688 86.0312 39.5781 90.25 42.375 95.3906C48.4531 93.1094 51.0156 89.6719 51.3281 89.2344C48.3125 86.5625 44.3438 84.9375 40 84.9375C38.625 84.9375 37.2812 85.1094 36 85.4062ZM53.2188 91.2031C52.8594 91.6875 50 95.3594 43.6875 97.9375C44.0781 98.75 44.4688 99.5781 44.8281 100.406C44.9531 100.703 45.0781 101 45.2031 101.281C50.8906 100.562 56.5312 101.719 57.0938 101.828C57.0469 97.8125 55.6094 94.1094 53.2188 91.2031Z" fill="#B2215A"/>
</g>
<path d="M28.8459 170.013C28.3831 170.095 27.9121 170.119 27.4248 170.184L25.9387 165.817V170.372C25.4759 170.42 25.0536 170.486 24.6151 170.551V162.207H25.8494L27.5385 166.941V162.207H28.8459V170.013ZM31.4039 165.263C31.9075 165.263 32.6789 165.238 33.1418 165.238V166.542C32.5652 166.542 31.8912 166.542 31.4039 166.566V168.506C32.1673 168.457 32.9307 168.391 33.7021 168.367V169.622L30.1046 169.907V162.207H33.7021V163.511H31.4039V165.263ZM38.5339 163.511H37.1859V169.508C36.7473 169.508 36.3088 169.508 35.8866 169.524V163.511H34.5386V162.207H38.5339L38.5339 163.511ZM40.6452 165.173H42.4237V166.477H40.6452V169.435H39.3702V162.207H43.0002V163.511H40.6452V165.173ZM45.1116 168.294C45.8506 168.31 46.5977 168.367 47.3204 168.408V169.695C46.1592 169.622 44.9979 169.549 43.8123 169.524V162.207H45.1116V168.294ZM48.4167 169.785C48.8309 169.809 49.2694 169.834 49.6917 169.883V162.207H48.4167V169.785ZM55.3843 162.207L53.7358 166.175L55.3843 170.551C54.897 170.486 54.4098 170.396 53.9225 170.315L52.9887 167.903L52.0386 170.119C51.5676 170.037 51.1128 170.013 50.6419 169.948L52.3147 166.126L50.8042 162.207H52.2009L53.0536 164.399L53.9632 162.207H55.3843Z" fill="#D81F26"/>
<path d="M45.4 223.618V239.895L49 236.276V220L45.4 223.618ZM38.2003 239.894L41.8002 236.277V220L38.2003 223.617V239.894ZM31 239.894L34.6 236.277V220L31 223.617V239.894Z" fill="#00AC5B"/>
<defs>
<filter id="filter0_bi_310_517" x="-30.4021" y="-30.4021" width="395.804" height="340.804" filterUnits="userSpaceOnUse" color-interpolation-filters="sRGB">
<feFlood flood-opacity="0" result="BackgroundImageFix"/>
<feGaussianBlur in="BackgroundImageFix" stdDeviation="15.2011"/>
<feComposite in2="SourceAlpha" operator="in" result="effect1_backgroundBlur_310_517"/>
<feBlend mode="normal" in="SourceGraphic" in2="effect1_backgroundBlur_310_517" result="shape"/>
<feColorMatrix in="SourceAlpha" type="matrix" values="0 0 0 0 0 0 0 0 0 0 0 0 0 0 0 0 0 0 127 0" result="hardAlpha"/>
<feOffset dx="-0.243217" dy="-0.243217"/>
<feGaussianBlur stdDeviation="0.182413"/>
<feComposite in2="hardAlpha" operator="arithmetic" k2="-1" k3="1"/>
<feColorMatrix type="matrix" values="0 0 0 0 0 0 0 0 0 0 0 0 0 0 0 0 0 0 0.36 0"/>
<feBlend mode="normal" in2="shape" result="effect2_innerShadow_310_517"/>
</filter>
<linearGradient id="paint0_linear_310_517" x1="-920.5" y1="-467" x2="336.597" y2="173.868" gradientUnits="userSpaceOnUse">
<stop stop-color="white"/>
<stop offset="0.989583" stop-color="#14101D"/>
</linearGradient>
<clipPath id="clip0_310_517">
<rect width="40" height="40" fill="white" transform="translate(20 82)"/>
</clipPath>
</defs>
</svg>
