<svg width="194" height="38" viewBox="0 0 194 38" fill="none" xmlns="http://www.w3.org/2000/svg">
<path d="M23.2271 7.19242L12.0716 14.3131L23.2271 21.4337L12.0716 28.5544L0.916016 21.3744L12.0716 14.2537L0.916016 7.19242L12.0716 0.0717773L23.2271 7.19242ZM12.0122 30.8092L23.1678 23.6886L34.3233 30.8092L23.1678 37.9299L12.0122 30.8092ZM23.2271 21.3744L34.3826 14.2537L23.2271 7.19242L34.3233 0.0717773L45.4788 7.19242L34.3233 14.3131L45.4788 21.4337L34.3233 28.5544L23.2271 21.3744Z" fill="#424147"/>
<path d="M54.1992 7.1923H63.2186C68.9744 7.1923 73.7214 10.5153 73.7214 18.1106V19.7128C73.7214 27.3675 69.2711 30.8091 63.3966 30.8091H54.1992V7.1923ZM59.2429 11.4647V26.4774H63.0999C66.3635 26.4774 68.559 24.3412 68.559 19.5941V18.348C68.559 13.6009 66.2448 11.4647 62.9219 11.4647H59.2429ZM76.3916 11.702H80.4266L81.0793 16.1524C81.8507 13.1262 83.8089 11.524 87.3691 11.524H88.6152V16.6272H86.5384C82.4441 16.6272 81.4353 18.0513 81.4353 22.0863V30.8685H76.451V11.702H76.3916ZM89.624 21.671V21.1369C89.624 14.7283 93.7183 11.2273 99.2961 11.2273C104.993 11.2273 108.968 14.7283 108.968 21.1369V21.671C108.968 27.9609 105.111 31.3432 99.2961 31.3432C93.1249 31.2838 89.624 27.9609 89.624 21.671ZM103.865 21.6116V21.1369C103.865 17.5766 102.085 15.4404 99.2367 15.4404C96.4478 15.4404 94.6084 17.3986 94.6084 21.1369V21.6116C94.6084 25.0533 96.3885 27.0114 99.2367 27.0114C102.085 26.9521 103.865 25.0533 103.865 21.6116ZM111.579 11.702H115.733L116.207 15.3217C117.216 12.8888 119.352 11.2273 122.497 11.2273C127.363 11.2273 130.567 14.7283 130.567 21.1962V21.7303C130.567 28.0202 127.007 31.3432 122.497 31.3432C119.471 31.3432 117.394 29.9784 116.385 27.7828V37.4551H111.52L111.579 11.702ZM125.523 21.6116V21.1962C125.523 17.3986 123.565 15.4997 120.954 15.4997C118.166 15.4997 116.326 17.6359 116.326 21.1962V21.5523C116.326 24.9346 118.106 27.0708 120.895 27.0708C123.743 27.0114 125.523 25.1719 125.523 21.6116ZM137.925 27.3081L137.51 30.8091H133.237V5.29346H138.103V15.0843C139.171 12.5921 141.307 11.2273 144.334 11.2273C148.903 11.2867 152.285 14.4316 152.285 20.7809V21.3743C152.285 27.7235 149.081 31.3432 144.215 31.3432C141.011 31.2838 138.934 29.8004 137.925 27.3081ZM147.182 21.3743V20.8995C147.182 17.3986 145.283 15.4404 142.613 15.4404C139.883 15.4404 137.984 17.6359 137.984 20.9589V21.3743C137.984 24.9346 139.824 27.0114 142.553 27.0114C145.461 27.0114 147.182 25.1719 147.182 21.3743ZM154.421 21.671V21.1369C154.421 14.7283 158.515 11.2273 164.093 11.2273C169.79 11.2273 173.765 14.7283 173.765 21.1369V21.671C173.765 27.9609 169.849 31.3432 164.093 31.3432C157.922 31.2838 154.421 27.9609 154.421 21.671ZM168.721 21.6116V21.1369C168.721 17.5766 166.941 15.4404 164.093 15.4404C161.304 15.4404 159.465 17.3986 159.465 21.1369V21.6116C159.465 25.0533 161.245 27.0114 164.093 27.0114C166.941 26.9521 168.721 25.0533 168.721 21.6116ZM180.292 20.8995L173.587 11.702H179.343L183.2 17.4579L187.116 11.702H192.813L185.989 20.8402L193.169 30.8091H187.532L183.141 24.4599L178.868 30.8091H172.994L180.292 20.8995Z" fill="#424147"/>
</svg>
