<svg width="81" height="15" viewBox="0 0 81 15" fill="none" xmlns="http://www.w3.org/2000/svg">
<path d="M11.0883 1.292V14H8.53225V8.474H3.09625V14H0.55825V1.292H3.09625V6.44H8.53225V1.292H11.0883ZM17.9983 3.902C18.9703 3.902 19.8403 4.106 20.6083 4.514C21.3883 4.922 22.0003 5.516 22.4443 6.296C22.8883 7.064 23.1103 7.97 23.1103 9.014C23.1103 10.058 22.8883 10.964 22.4443 11.732C22.0003 12.5 21.3883 13.094 20.6083 13.514C19.8403 13.922 18.9703 14.126 17.9983 14.126C17.0263 14.126 16.1503 13.922 15.3703 13.514C14.6023 13.094 13.9963 12.5 13.5523 11.732C13.1083 10.964 12.8863 10.058 12.8863 9.014C12.8863 7.97 13.1083 7.064 13.5523 6.296C13.9963 5.516 14.6023 4.922 15.3703 4.514C16.1503 4.106 17.0263 3.902 17.9983 3.902ZM17.9983 6.098C17.2903 6.098 16.6903 6.35 16.1983 6.854C15.7063 7.346 15.4603 8.066 15.4603 9.014C15.4603 9.962 15.7063 10.688 16.1983 11.192C16.6903 11.684 17.2903 11.93 17.9983 11.93C18.7063 11.93 19.3063 11.684 19.7983 11.192C20.2903 10.688 20.5363 9.962 20.5363 9.014C20.5363 8.066 20.2903 7.346 19.7983 6.854C19.3063 6.35 18.7063 6.098 17.9983 6.098ZM29.512 3.902C30.484 3.902 31.354 4.106 32.122 4.514C32.902 4.922 33.514 5.516 33.958 6.296C34.402 7.064 34.624 7.97 34.624 9.014C34.624 10.058 34.402 10.964 33.958 11.732C33.514 12.5 32.902 13.094 32.122 13.514C31.354 13.922 30.484 14.126 29.512 14.126C28.54 14.126 27.664 13.922 26.884 13.514C26.116 13.094 25.51 12.5 25.066 11.732C24.622 10.964 24.4 10.058 24.4 9.014C24.4 7.97 24.622 7.064 25.066 6.296C25.51 5.516 26.116 4.922 26.884 4.514C27.664 4.106 28.54 3.902 29.512 3.902ZM29.512 6.098C28.804 6.098 28.204 6.35 27.712 6.854C27.22 7.346 26.974 8.066 26.974 9.014C26.974 9.962 27.22 10.688 27.712 11.192C28.204 11.684 28.804 11.93 29.512 11.93C30.22 11.93 30.82 11.684 31.312 11.192C31.804 10.688 32.05 9.962 32.05 9.014C32.05 8.066 31.804 7.346 31.312 6.854C30.82 6.35 30.22 6.098 29.512 6.098Z" fill="white"/>
<path d="M43.5096 7.448C44.2776 7.604 44.8896 7.97 45.3456 8.546C45.8136 9.11 46.0476 9.776 46.0476 10.544C46.0476 11.612 45.6876 12.458 44.9676 13.082C44.2596 13.694 43.2276 14 41.8716 14H36.4176V1.292H41.7636C43.0476 1.292 44.0316 1.574 44.7156 2.138C45.4116 2.702 45.7596 3.494 45.7596 4.514C45.7596 5.306 45.5496 5.954 45.1296 6.458C44.7216 6.962 44.1816 7.292 43.5096 7.448ZM38.9556 6.62H41.2416C41.8776 6.62 42.3576 6.482 42.6816 6.206C43.0176 5.918 43.1856 5.51 43.1856 4.982C43.1856 4.454 43.0236 4.046 42.6996 3.758C42.3756 3.47 41.8776 3.326 41.2056 3.326H38.9556V6.62ZM41.3676 11.93C42.0396 11.93 42.5556 11.786 42.9156 11.498C43.2756 11.198 43.4556 10.766 43.4556 10.202C43.4556 9.638 43.2696 9.206 42.8976 8.906C42.5376 8.594 42.0216 8.438 41.3496 8.438H38.9556V11.93H41.3676ZM51.7318 3.902C52.5718 3.902 53.2918 4.1 53.8918 4.496C54.4918 4.892 54.9178 5.426 55.1698 6.098V4.028H57.6898V14H55.1698V11.912C54.9178 12.584 54.4918 13.124 53.8918 13.532C53.2918 13.928 52.5718 14.126 51.7318 14.126C50.8918 14.126 50.1358 13.922 49.4638 13.514C48.7918 13.106 48.2638 12.518 47.8798 11.75C47.5078 10.97 47.3218 10.058 47.3218 9.014C47.3218 7.97 47.5078 7.064 47.8798 6.296C48.2638 5.516 48.7918 4.922 49.4638 4.514C50.1358 4.106 50.8918 3.902 51.7318 3.902ZM52.5238 6.116C51.7318 6.116 51.0958 6.374 50.6158 6.89C50.1358 7.406 49.8958 8.114 49.8958 9.014C49.8958 9.914 50.1358 10.622 50.6158 11.138C51.0958 11.642 51.7318 11.894 52.5238 11.894C53.2918 11.894 53.9218 11.636 54.4138 11.12C54.9178 10.592 55.1698 9.89 55.1698 9.014C55.1698 8.126 54.9178 7.424 54.4138 6.908C53.9218 6.38 53.2918 6.116 52.5238 6.116ZM65.9299 3.884C67.0819 3.884 67.9999 4.262 68.6839 5.018C69.3679 5.774 69.7099 6.836 69.7099 8.204V14H67.1899V8.492C67.1899 7.7 66.9859 7.088 66.5779 6.656C66.1699 6.212 65.6119 5.99 64.9039 5.99C64.1839 5.99 63.6079 6.224 63.1759 6.692C62.7439 7.16 62.5279 7.832 62.5279 8.708V14H59.9899V4.028H62.5279V6.026C62.7919 5.354 63.2239 4.832 63.8239 4.46C64.4359 4.076 65.1379 3.884 65.9299 3.884ZM77.775 14L74.481 9.644V14H71.943V0.68H74.481V8.168L77.757 4.028H80.763L76.569 8.996L80.871 14H77.775Z" fill="#5CE1E6"/>
</svg>
