<svg width="287" height="276" viewBox="0 0 287 276" fill="none" xmlns="http://www.w3.org/2000/svg">
<g filter="url(#filter0_d_310_570)">
<rect x="26" y="24" width="227" height="216" rx="10" fill="url(#paint0_linear_310_570)"/>
</g>
<path fill-rule="evenodd" clip-rule="evenodd" d="M230.511 128H167.638C165.981 128 164.638 129.343 164.638 131V156C164.638 157.657 165.981 159 167.638 159H230.511C232.168 159 233.511 157.657 233.511 156V131C233.511 129.343 232.168 128 230.511 128ZM167.638 127C165.429 127 163.638 128.791 163.638 131V156C163.638 158.209 165.429 160 167.638 160H230.511C232.72 160 234.511 158.209 234.511 156V131C234.511 128.791 232.72 127 230.511 127H167.638Z" fill="url(#paint1_linear_310_570)"/>
<rect x="46.543" y="184" width="187.968" height="33" rx="10" fill="url(#paint2_linear_310_570)"/>
<circle cx="74.543" cy="72" r="28" fill="white"/>
<path d="M119.255 60.712V67H115.871V50.056H122.039C124.039 50.056 125.543 50.536 126.551 51.496C127.575 52.456 128.087 53.76 128.087 55.408C128.087 57.024 127.559 58.312 126.503 59.272C125.463 60.232 123.975 60.712 122.039 60.712H119.255ZM121.679 58C123.663 58 124.655 57.136 124.655 55.408C124.655 54.56 124.423 53.912 123.959 53.464C123.495 53.016 122.735 52.792 121.679 52.792H119.255V58H121.679ZM135.733 53.536C136.853 53.536 137.813 53.8 138.613 54.328C139.413 54.856 139.981 55.568 140.317 56.464V53.704H143.677V67H140.317V64.216C139.981 65.112 139.413 65.832 138.613 66.376C137.813 66.904 136.853 67.168 135.733 67.168C134.613 67.168 133.605 66.896 132.709 66.352C131.813 65.808 131.109 65.024 130.597 64C130.101 62.96 129.853 61.744 129.853 60.352C129.853 58.96 130.101 57.752 130.597 56.728C131.109 55.688 131.813 54.896 132.709 54.352C133.605 53.808 134.613 53.536 135.733 53.536ZM136.789 56.488C135.733 56.488 134.885 56.832 134.245 57.52C133.605 58.208 133.285 59.152 133.285 60.352C133.285 61.552 133.605 62.496 134.245 63.184C134.885 63.856 135.733 64.192 136.789 64.192C137.813 64.192 138.653 63.848 139.309 63.16C139.981 62.456 140.317 61.52 140.317 60.352C140.317 59.168 139.981 58.232 139.309 57.544C138.653 56.84 137.813 56.488 136.789 56.488ZM149.264 53.704L152.888 62.728L156.248 53.704H159.968L151.832 73.336H148.088L151.088 66.616L145.496 53.704H149.264ZM169.746 53.536C170.866 53.536 171.874 53.808 172.77 54.352C173.666 54.896 174.362 55.688 174.858 56.728C175.37 57.752 175.626 58.96 175.626 60.352C175.626 61.744 175.37 62.96 174.858 64C174.362 65.024 173.666 65.808 172.77 66.352C171.874 66.896 170.866 67.168 169.746 67.168C168.626 67.168 167.666 66.904 166.866 66.376C166.082 65.832 165.522 65.112 165.186 64.216V73.336H161.802V53.704H165.186V56.464C165.522 55.568 166.082 54.856 166.866 54.328C167.666 53.8 168.626 53.536 169.746 53.536ZM168.69 56.488C167.666 56.488 166.818 56.84 166.146 57.544C165.49 58.232 165.162 59.168 165.162 60.352C165.162 61.52 165.49 62.456 166.146 63.16C166.818 63.848 167.666 64.192 168.69 64.192C169.746 64.192 170.594 63.856 171.234 63.184C171.874 62.496 172.194 61.552 172.194 60.352C172.194 59.152 171.874 58.208 171.234 57.52C170.594 56.832 169.746 56.488 168.69 56.488ZM183.469 53.536C184.589 53.536 185.549 53.8 186.349 54.328C187.149 54.856 187.717 55.568 188.053 56.464V53.704H191.413V67H188.053V64.216C187.717 65.112 187.149 65.832 186.349 66.376C185.549 66.904 184.589 67.168 183.469 67.168C182.349 67.168 181.341 66.896 180.445 66.352C179.549 65.808 178.845 65.024 178.333 64C177.837 62.96 177.589 61.744 177.589 60.352C177.589 58.96 177.837 57.752 178.333 56.728C178.845 55.688 179.549 54.896 180.445 54.352C181.341 53.808 182.349 53.536 183.469 53.536ZM184.525 56.488C183.469 56.488 182.621 56.832 181.981 57.52C181.341 58.208 181.021 59.152 181.021 60.352C181.021 61.552 181.341 62.496 181.981 63.184C182.621 63.856 183.469 64.192 184.525 64.192C185.549 64.192 186.389 63.848 187.045 63.16C187.717 62.456 188.053 61.52 188.053 60.352C188.053 59.168 187.717 58.232 187.045 57.544C186.389 56.84 185.549 56.488 184.525 56.488ZM198.103 49.24V67H194.719V49.24H198.103Z" fill="white"/>
<path d="M121.009 83.456C122.041 83.456 122.893 83.712 123.565 84.224C124.237 84.728 124.701 85.42 124.957 86.3H123.805C123.589 85.74 123.241 85.296 122.761 84.968C122.281 84.632 121.693 84.464 120.997 84.464C120.445 84.464 119.949 84.6 119.509 84.872C119.077 85.136 118.733 85.52 118.477 86.024C118.229 86.52 118.105 87.104 118.105 87.776C118.105 88.44 118.229 89.02 118.477 89.516C118.733 90.012 119.077 90.396 119.509 90.668C119.949 90.932 120.445 91.064 120.997 91.064C121.693 91.064 122.281 90.9 122.761 90.572C123.241 90.236 123.589 89.788 123.805 89.228H124.957C124.701 90.108 124.237 90.804 123.565 91.316C122.893 91.82 122.041 92.072 121.009 92.072C120.217 92.072 119.517 91.892 118.909 91.532C118.301 91.164 117.825 90.656 117.481 90.008C117.145 89.352 116.977 88.608 116.977 87.776C116.977 86.936 117.145 86.188 117.481 85.532C117.825 84.876 118.301 84.368 118.909 84.008C119.517 83.64 120.217 83.456 121.009 83.456ZM130.006 85.304C130.774 85.304 131.394 85.552 131.866 86.048C132.338 86.536 132.574 87.244 132.574 88.172V92H131.482V88.268C131.482 87.612 131.314 87.108 130.978 86.756C130.642 86.404 130.186 86.228 129.61 86.228C129.01 86.228 128.53 86.424 128.17 86.816C127.81 87.2 127.63 87.764 127.63 88.508V92H126.538V83.12H127.63V86.972C127.798 86.436 128.094 86.024 128.518 85.736C128.95 85.448 129.446 85.304 130.006 85.304ZM140.428 88.34C140.428 88.572 140.412 88.772 140.38 88.94H135.112C135.136 89.692 135.348 90.256 135.748 90.632C136.156 91.008 136.652 91.196 137.236 91.196C137.764 91.196 138.204 91.064 138.556 90.8C138.916 90.528 139.136 90.168 139.216 89.72H140.38C140.3 90.176 140.12 90.584 139.84 90.944C139.568 91.304 139.212 91.584 138.772 91.784C138.332 91.984 137.836 92.084 137.284 92.084C136.652 92.084 136.092 91.948 135.604 91.676C135.116 91.404 134.732 91.016 134.452 90.512C134.18 90 134.044 89.4 134.044 88.712C134.044 88.024 134.18 87.424 134.452 86.912C134.732 86.4 135.116 86.008 135.604 85.736C136.092 85.464 136.652 85.328 137.284 85.328C137.924 85.328 138.48 85.464 138.952 85.736C139.432 86.008 139.796 86.372 140.044 86.828C140.3 87.284 140.428 87.788 140.428 88.34ZM139.324 88.412C139.348 87.924 139.268 87.516 139.084 87.188C138.9 86.86 138.648 86.616 138.328 86.456C138.008 86.296 137.66 86.216 137.284 86.216C136.684 86.216 136.18 86.404 135.772 86.78C135.364 87.148 135.144 87.692 135.112 88.412H139.324ZM144.893 85.328C145.733 85.328 146.429 85.552 146.981 86C147.533 86.448 147.873 87.048 148.001 87.8H146.849C146.769 87.328 146.549 86.96 146.189 86.696C145.837 86.424 145.397 86.288 144.869 86.288C144.485 86.288 144.133 86.376 143.813 86.552C143.501 86.728 143.249 87 143.057 87.368C142.865 87.728 142.769 88.176 142.769 88.712C142.769 89.248 142.865 89.7 143.057 90.068C143.249 90.428 143.501 90.696 143.813 90.872C144.133 91.048 144.485 91.136 144.869 91.136C145.397 91.136 145.837 91 146.189 90.728C146.549 90.456 146.769 90.084 146.849 89.612H148.001C147.873 90.372 147.533 90.976 146.981 91.424C146.429 91.864 145.733 92.084 144.893 92.084C144.261 92.084 143.701 91.948 143.213 91.676C142.725 91.404 142.341 91.016 142.061 90.512C141.789 90 141.653 89.4 141.653 88.712C141.653 88.024 141.789 87.424 142.061 86.912C142.341 86.4 142.725 86.008 143.213 85.736C143.701 85.464 144.261 85.328 144.893 85.328ZM153.162 92L150.642 89.036V92H149.55V83.12H150.642V88.28L153.126 85.412H154.458L151.506 88.688L154.53 92H153.162ZM158.599 85.328C159.231 85.328 159.795 85.464 160.291 85.736C160.795 86.008 161.187 86.4 161.467 86.912C161.755 87.424 161.899 88.024 161.899 88.712C161.899 89.4 161.755 90 161.467 90.512C161.187 91.016 160.795 91.404 160.291 91.676C159.795 91.948 159.231 92.084 158.599 92.084C157.967 92.084 157.399 91.948 156.895 91.676C156.399 91.404 156.007 91.016 155.719 90.512C155.431 90 155.287 89.4 155.287 88.712C155.287 88.024 155.431 87.424 155.719 86.912C156.007 86.4 156.399 86.008 156.895 85.736C157.399 85.464 157.967 85.328 158.599 85.328ZM158.599 86.288C158.207 86.288 157.843 86.376 157.507 86.552C157.179 86.728 156.911 87 156.703 87.368C156.503 87.728 156.403 88.176 156.403 88.712C156.403 89.24 156.503 89.688 156.703 90.056C156.911 90.416 157.179 90.684 157.507 90.86C157.843 91.036 158.207 91.124 158.599 91.124C158.991 91.124 159.351 91.036 159.679 90.86C160.015 90.684 160.283 90.416 160.483 90.056C160.691 89.688 160.795 89.24 160.795 88.712C160.795 88.176 160.691 87.728 160.483 87.368C160.283 87 160.015 86.728 159.679 86.552C159.351 86.376 158.991 86.288 158.599 86.288ZM169.298 85.412V92H168.206V90.452C168.038 90.988 167.738 91.4 167.306 91.688C166.882 91.968 166.386 92.108 165.818 92.108C165.058 92.108 164.442 91.864 163.97 91.376C163.498 90.88 163.262 90.172 163.262 89.252V85.412H164.354V89.144C164.354 89.8 164.522 90.308 164.858 90.668C165.194 91.02 165.65 91.196 166.226 91.196C166.826 91.196 167.306 91.004 167.666 90.62C168.026 90.228 168.206 89.66 168.206 88.916V85.412H169.298ZM174.312 91.04V92H173.496C172.824 92 172.32 91.84 171.984 91.52C171.656 91.2 171.492 90.664 171.492 89.912V86.36H170.508V85.412H171.492V83.768H172.596V85.412H174.3V86.36H172.596V89.936C172.596 90.36 172.672 90.652 172.824 90.812C172.984 90.964 173.256 91.04 173.64 91.04H174.312Z" fill="white" fill-opacity="0.7"/>
<path d="M178.529 139.456C179.561 139.456 180.413 139.712 181.085 140.224C181.757 140.728 182.221 141.42 182.477 142.3H181.325C181.109 141.74 180.761 141.296 180.281 140.968C179.801 140.632 179.213 140.464 178.517 140.464C177.965 140.464 177.469 140.6 177.029 140.872C176.597 141.136 176.253 141.52 175.997 142.024C175.749 142.52 175.625 143.104 175.625 143.776C175.625 144.44 175.749 145.02 175.997 145.516C176.253 146.012 176.597 146.396 177.029 146.668C177.469 146.932 177.965 147.064 178.517 147.064C179.213 147.064 179.801 146.9 180.281 146.572C180.761 146.236 181.109 145.788 181.325 145.228H182.477C182.221 146.108 181.757 146.804 181.085 147.316C180.413 147.82 179.561 148.072 178.529 148.072C177.737 148.072 177.037 147.892 176.429 147.532C175.821 147.164 175.345 146.656 175.001 146.008C174.665 145.352 174.497 144.608 174.497 143.776C174.497 142.936 174.665 142.188 175.001 141.532C175.345 140.876 175.821 140.368 176.429 140.008C177.037 139.64 177.737 139.456 178.529 139.456ZM187.526 141.304C188.294 141.304 188.914 141.552 189.386 142.048C189.858 142.536 190.094 143.244 190.094 144.172V148H189.002V144.268C189.002 143.612 188.834 143.108 188.498 142.756C188.162 142.404 187.706 142.228 187.13 142.228C186.53 142.228 186.05 142.424 185.69 142.816C185.33 143.2 185.15 143.764 185.15 144.508V148H184.058V139.12H185.15V142.972C185.318 142.436 185.614 142.024 186.038 141.736C186.47 141.448 186.966 141.304 187.526 141.304ZM194.589 141.328C195.229 141.328 195.769 141.488 196.209 141.808C196.657 142.128 196.969 142.556 197.145 143.092V141.412H198.237V148H197.145V146.32C196.969 146.856 196.657 147.284 196.209 147.604C195.769 147.924 195.229 148.084 194.589 148.084C194.005 148.084 193.485 147.948 193.029 147.676C192.573 147.404 192.213 147.016 191.949 146.512C191.693 146 191.565 145.4 191.565 144.712C191.565 144.024 191.693 143.424 191.949 142.912C192.213 142.4 192.573 142.008 193.029 141.736C193.485 141.464 194.005 141.328 194.589 141.328ZM194.901 142.3C194.229 142.3 193.689 142.516 193.281 142.948C192.881 143.372 192.681 143.96 192.681 144.712C192.681 145.464 192.881 146.056 193.281 146.488C193.689 146.912 194.229 147.124 194.901 147.124C195.333 147.124 195.717 147.024 196.053 146.824C196.397 146.624 196.665 146.344 196.857 145.984C197.049 145.616 197.145 145.192 197.145 144.712C197.145 144.232 197.049 143.808 196.857 143.44C196.665 143.072 196.397 142.792 196.053 142.6C195.717 142.4 195.333 142.3 194.901 142.3ZM203.563 141.304C204.331 141.304 204.951 141.552 205.423 142.048C205.895 142.536 206.131 143.244 206.131 144.172V148H205.039V144.268C205.039 143.612 204.871 143.108 204.535 142.756C204.199 142.404 203.743 142.228 203.167 142.228C202.567 142.228 202.087 142.424 201.727 142.816C201.367 143.2 201.187 143.764 201.187 144.508V148H200.095V141.412H201.187V142.972C201.355 142.436 201.651 142.024 202.075 141.736C202.507 141.448 203.003 141.304 203.563 141.304ZM210.626 141.328C211.266 141.328 211.806 141.488 212.246 141.808C212.694 142.128 213.006 142.556 213.182 143.092V141.412H214.274V148.108C214.274 148.716 214.146 149.256 213.89 149.728C213.634 150.2 213.274 150.568 212.81 150.832C212.346 151.096 211.806 151.228 211.19 151.228C210.302 151.228 209.578 151.012 209.018 150.58C208.458 150.156 208.102 149.58 207.95 148.852H209.03C209.158 149.292 209.398 149.636 209.75 149.884C210.11 150.14 210.57 150.268 211.13 150.268C211.722 150.268 212.21 150.076 212.594 149.692C212.986 149.316 213.182 148.788 213.182 148.108V146.32C213.006 146.856 212.694 147.284 212.246 147.604C211.806 147.924 211.266 148.084 210.626 148.084C210.042 148.084 209.522 147.948 209.066 147.676C208.61 147.404 208.25 147.016 207.986 146.512C207.73 146 207.602 145.4 207.602 144.712C207.602 144.024 207.73 143.424 207.986 142.912C208.25 142.4 208.61 142.008 209.066 141.736C209.522 141.464 210.042 141.328 210.626 141.328ZM210.938 142.3C210.266 142.3 209.726 142.516 209.318 142.948C208.918 143.372 208.718 143.96 208.718 144.712C208.718 145.464 208.918 146.056 209.318 146.488C209.726 146.912 210.266 147.124 210.938 147.124C211.37 147.124 211.754 147.024 212.09 146.824C212.434 146.624 212.702 146.344 212.894 145.984C213.086 145.616 213.182 145.192 213.182 144.712C213.182 144.232 213.086 143.808 212.894 143.44C212.702 143.072 212.434 142.792 212.09 142.6C211.754 142.4 211.37 142.3 210.938 142.3ZM222.192 144.34C222.192 144.572 222.176 144.772 222.144 144.94H216.876C216.9 145.692 217.112 146.256 217.512 146.632C217.92 147.008 218.416 147.196 219 147.196C219.528 147.196 219.968 147.064 220.32 146.8C220.68 146.528 220.9 146.168 220.98 145.72H222.144C222.064 146.176 221.884 146.584 221.604 146.944C221.332 147.304 220.976 147.584 220.536 147.784C220.096 147.984 219.6 148.084 219.048 148.084C218.416 148.084 217.856 147.948 217.368 147.676C216.88 147.404 216.496 147.016 216.216 146.512C215.944 146 215.808 145.4 215.808 144.712C215.808 144.024 215.944 143.424 216.216 142.912C216.496 142.4 216.88 142.008 217.368 141.736C217.856 141.464 218.416 141.328 219.048 141.328C219.688 141.328 220.244 141.464 220.716 141.736C221.196 142.008 221.56 142.372 221.808 142.828C222.064 143.284 222.192 143.788 222.192 144.34ZM221.088 144.412C221.112 143.924 221.032 143.516 220.848 143.188C220.664 142.86 220.412 142.616 220.092 142.456C219.772 142.296 219.424 142.216 219.048 142.216C218.448 142.216 217.944 142.404 217.536 142.78C217.128 143.148 216.908 143.692 216.876 144.412H221.088Z" fill="url(#paint3_linear_310_570)"/>
<path d="M103.404 196.66V205H102.024V198.748L99.6119 205H98.4119L95.9879 198.748V205H94.6199V196.66H96.2759L99.0359 203.32L101.748 196.66H103.404ZM107.822 198.304C108.422 198.304 108.934 198.452 109.358 198.748C109.782 199.044 110.082 199.436 110.258 199.924V198.388H111.626V205H110.258V203.464C110.082 203.952 109.782 204.344 109.358 204.64C108.934 204.936 108.422 205.084 107.822 205.084C107.246 205.084 106.73 204.948 106.274 204.676C105.826 204.404 105.474 204.012 105.218 203.5C104.962 202.988 104.834 202.384 104.834 201.688C104.834 201 104.962 200.4 105.218 199.888C105.474 199.376 105.826 198.984 106.274 198.712C106.73 198.44 107.246 198.304 107.822 198.304ZM108.242 199.504C107.634 199.504 107.146 199.7 106.778 200.092C106.418 200.476 106.238 201.008 106.238 201.688C106.238 202.368 106.418 202.904 106.778 203.296C107.146 203.68 107.634 203.872 108.242 203.872C108.626 203.872 108.97 203.784 109.274 203.608C109.578 203.424 109.818 203.168 109.994 202.84C110.17 202.512 110.258 202.128 110.258 201.688C110.258 201.256 110.17 200.876 109.994 200.548C109.818 200.212 109.578 199.956 109.274 199.78C108.97 199.596 108.626 199.504 108.242 199.504ZM117.131 205L114.755 202.06V205H113.387V196.12H114.755V201.208L117.107 198.388H118.751L115.871 201.676L118.823 205H117.131ZM125.979 201.376C125.979 201.6 125.963 201.796 125.931 201.964H120.843C120.867 202.644 121.055 203.148 121.407 203.476C121.759 203.804 122.195 203.968 122.715 203.968C123.171 203.968 123.555 203.852 123.867 203.62C124.187 203.388 124.383 203.08 124.455 202.696H125.919C125.831 203.16 125.647 203.572 125.367 203.932C125.087 204.292 124.723 204.576 124.275 204.784C123.827 204.984 123.327 205.084 122.775 205.084C122.135 205.084 121.567 204.948 121.071 204.676C120.583 204.404 120.199 204.012 119.919 203.5C119.639 202.988 119.499 202.384 119.499 201.688C119.499 201 119.639 200.4 119.919 199.888C120.199 199.376 120.583 198.984 121.071 198.712C121.567 198.44 122.135 198.304 122.775 198.304C123.423 198.304 123.987 198.44 124.467 198.712C124.955 198.976 125.327 199.344 125.583 199.816C125.847 200.28 125.979 200.8 125.979 201.376ZM124.599 201.34C124.615 200.908 124.539 200.548 124.371 200.26C124.211 199.964 123.987 199.748 123.699 199.612C123.419 199.468 123.111 199.396 122.775 199.396C122.239 199.396 121.791 199.56 121.431 199.888C121.071 200.216 120.875 200.7 120.843 201.34H124.599ZM131.721 201.712V205H130.353V196.528H133.233C134.209 196.528 134.941 196.76 135.429 197.224C135.925 197.688 136.173 198.324 136.173 199.132C136.173 199.932 135.921 200.564 135.417 201.028C134.913 201.484 134.185 201.712 133.233 201.712H131.721ZM133.089 200.596C134.217 200.596 134.781 200.108 134.781 199.132C134.781 198.652 134.645 198.288 134.373 198.04C134.109 197.784 133.681 197.656 133.089 197.656H131.721V200.596H133.089ZM140.144 198.304C140.744 198.304 141.256 198.452 141.68 198.748C142.104 199.044 142.404 199.436 142.58 199.924V198.388H143.948V205H142.58V203.464C142.404 203.952 142.104 204.344 141.68 204.64C141.256 204.936 140.744 205.084 140.144 205.084C139.568 205.084 139.052 204.948 138.596 204.676C138.148 204.404 137.796 204.012 137.54 203.5C137.284 202.988 137.156 202.384 137.156 201.688C137.156 201 137.284 200.4 137.54 199.888C137.796 199.376 138.148 198.984 138.596 198.712C139.052 198.44 139.568 198.304 140.144 198.304ZM140.564 199.504C139.956 199.504 139.468 199.7 139.1 200.092C138.74 200.476 138.56 201.008 138.56 201.688C138.56 202.368 138.74 202.904 139.1 203.296C139.468 203.68 139.956 203.872 140.564 203.872C140.948 203.872 141.292 203.784 141.596 203.608C141.9 203.424 142.14 203.168 142.316 202.84C142.492 202.512 142.58 202.128 142.58 201.688C142.58 201.256 142.492 200.876 142.316 200.548C142.14 200.212 141.9 199.956 141.596 199.78C141.292 199.596 140.948 199.504 140.564 199.504ZM146.49 198.388L148.47 203.248L150.306 198.388H151.83L147.834 208.144H146.31L147.738 204.844L144.954 198.388H146.49ZM161.117 198.28C161.901 198.28 162.525 198.528 162.989 199.024C163.461 199.52 163.697 200.228 163.697 201.148V205H162.329V201.292C162.329 200.716 162.185 200.272 161.897 199.96C161.609 199.64 161.213 199.48 160.709 199.48C160.173 199.48 159.745 199.652 159.425 199.996C159.113 200.332 158.957 200.828 158.957 201.484V205H157.589V201.292C157.589 200.716 157.445 200.272 157.157 199.96C156.869 199.64 156.473 199.48 155.969 199.48C155.433 199.48 155.005 199.652 154.685 199.996C154.373 200.332 154.217 200.828 154.217 201.484V205H152.849V198.388H154.217V199.768C154.385 199.288 154.665 198.92 155.057 198.664C155.449 198.408 155.909 198.28 156.437 198.28C156.989 198.28 157.465 198.416 157.865 198.688C158.273 198.96 158.569 199.352 158.753 199.864C158.945 199.368 159.253 198.98 159.677 198.7C160.101 198.42 160.581 198.28 161.117 198.28ZM171.559 201.376C171.559 201.6 171.543 201.796 171.511 201.964H166.423C166.447 202.644 166.635 203.148 166.987 203.476C167.339 203.804 167.775 203.968 168.295 203.968C168.751 203.968 169.135 203.852 169.447 203.62C169.767 203.388 169.963 203.08 170.035 202.696H171.499C171.411 203.16 171.227 203.572 170.947 203.932C170.667 204.292 170.303 204.576 169.855 204.784C169.407 204.984 168.907 205.084 168.355 205.084C167.715 205.084 167.147 204.948 166.651 204.676C166.163 204.404 165.779 204.012 165.499 203.5C165.219 202.988 165.079 202.384 165.079 201.688C165.079 201 165.219 200.4 165.499 199.888C165.779 199.376 166.163 198.984 166.651 198.712C167.147 198.44 167.715 198.304 168.355 198.304C169.003 198.304 169.567 198.44 170.047 198.712C170.535 198.976 170.907 199.344 171.163 199.816C171.427 200.28 171.559 200.8 171.559 201.376ZM170.179 201.34C170.195 200.908 170.119 200.548 169.951 200.26C169.791 199.964 169.567 199.748 169.279 199.612C168.999 199.468 168.691 199.396 168.355 199.396C167.819 199.396 167.371 199.56 167.011 199.888C166.651 200.216 166.455 200.7 166.423 201.34H170.179ZM176.696 198.28C177.464 198.28 178.08 198.528 178.544 199.024C179.008 199.52 179.24 200.228 179.24 201.148V205H177.872V201.292C177.872 200.7 177.72 200.244 177.416 199.924C177.112 199.596 176.696 199.432 176.168 199.432C175.624 199.432 175.188 199.608 174.86 199.96C174.532 200.304 174.368 200.812 174.368 201.484V205H173V198.388H174.368V199.84C174.544 199.344 174.84 198.96 175.256 198.688C175.672 198.416 176.152 198.28 176.696 198.28ZM184.283 203.812V205H183.443C182.739 205 182.203 204.832 181.835 204.496C181.475 204.152 181.295 203.584 181.295 202.792V199.552H180.347V198.388H181.295V196.744H182.675V198.388H184.271V199.552H182.675V202.816C182.675 203.192 182.743 203.452 182.879 203.596C183.023 203.74 183.271 203.812 183.623 203.812H184.283Z" fill="#00030D"/>
<path d="M46.951 128.524H49.243V136H50.335V128.524H52.615V127.636H46.951V128.524ZM60.3192 132.7C60.3192 130.624 58.8672 129.316 56.9952 129.316C55.1352 129.316 53.6712 130.624 53.6712 132.7C53.6712 134.788 55.0872 136.108 56.9472 136.108C58.8192 136.108 60.3192 134.788 60.3192 132.7ZM54.7872 132.7C54.7872 131.044 55.8312 130.264 56.9832 130.264C58.1112 130.264 59.2032 131.044 59.2032 132.7C59.2032 134.368 58.0872 135.148 56.9472 135.148C55.8072 135.148 54.7872 134.368 54.7872 132.7ZM62.1149 134.2C62.1149 135.52 62.7749 136 63.9389 136H64.9229V135.076H64.1189C63.4469 135.076 63.2069 134.848 63.2069 134.2V130.324H64.9229V129.424H63.2069V127.768H62.1149V129.424H61.2629V130.324H62.1149V134.2ZM65.958 132.688C65.958 134.728 67.314 136.108 69.066 136.108C70.278 136.108 71.13 135.484 71.526 134.776V136H72.63V129.424H71.526V130.624C71.142 129.94 70.302 129.316 69.078 129.316C67.314 129.316 65.958 130.636 65.958 132.688ZM71.526 132.7C71.526 134.248 70.494 135.148 69.294 135.148C68.094 135.148 67.074 134.236 67.074 132.688C67.074 131.14 68.094 130.264 69.294 130.264C70.494 130.264 71.526 131.176 71.526 132.7ZM74.5954 136H75.6874V127.12H74.5954V136Z" fill="white" fill-opacity="0.7"/>
<path d="M51.403 160.566H52.573V159.09C55.003 158.874 56.335 157.182 56.335 155.436C56.335 152.898 54.373 152.412 52.573 151.98V148.092C53.437 148.308 53.941 148.974 54.013 149.694H56.209C56.047 147.66 54.643 146.526 52.573 146.346V144.888H51.403V146.364C49.171 146.562 47.623 147.948 47.623 149.964C47.623 152.502 49.603 153.006 51.403 153.456V157.416C50.395 157.236 49.891 156.57 49.819 155.67H47.623C47.623 157.704 49.207 158.91 51.403 159.108V160.566ZM54.265 155.544C54.265 156.48 53.653 157.236 52.573 157.416V153.762C53.545 154.068 54.265 154.518 54.265 155.544ZM49.711 149.856C49.711 148.758 50.413 148.164 51.403 148.038V151.674C50.431 151.368 49.711 150.9 49.711 149.856ZM59.348 158.82H68.096V157.11H62.39C64.496 155.184 67.736 152.754 67.736 149.568C67.736 147.21 66.224 145.608 63.56 145.608C61.238 145.608 59.402 146.994 59.33 149.838H61.31C61.364 148.362 62.138 147.354 63.578 147.354C65.108 147.354 65.702 148.29 65.702 149.658C65.702 152.232 62.444 154.608 59.348 157.326V158.82ZM71.4827 159H73.5527V145.878H69.8087V147.75H71.4827V159ZM76.5516 152.268C76.5516 156.084 77.5596 158.964 81.2316 158.964C84.9036 158.964 85.9116 156.084 85.9116 152.268C85.9116 148.524 84.9036 145.644 81.2316 145.644C77.5596 145.644 76.5516 148.524 76.5516 152.268ZM83.8956 152.268C83.8956 154.842 83.6256 157.092 81.2316 157.092C78.8376 157.092 78.5676 154.842 78.5676 152.268C78.5676 149.82 78.8376 147.516 81.2316 147.516C83.6256 147.516 83.8956 149.82 83.8956 152.268Z" fill="white"/>
<path d="M69.3616 86.5863L69.8939 83.2158L68.7082 83.1884H63.0461L66.9809 58.3179C66.9927 58.2419 67.0314 58.1727 67.09 58.1228C67.1487 58.0729 67.2234 58.0456 67.3005 58.046H76.8476C80.017 58.046 82.2043 58.7035 83.3463 60.0011C83.8816 60.6099 84.2226 61.246 84.3875 61.9461C84.5605 62.6806 84.5636 63.5583 84.3946 64.6286L84.3824 64.7068V65.3926L84.9178 65.695C85.3265 65.9014 85.6939 66.1806 86.0017 66.5188C86.4598 67.0393 86.7559 67.7008 86.8811 68.4851C87.0104 69.2917 86.9676 70.2515 86.7559 71.3381C86.5117 72.588 86.1168 73.6767 85.5834 74.5675C85.1129 75.3655 84.4802 76.0567 83.7259 76.5967C83.0175 77.0979 82.1758 77.4783 81.2241 77.7218C80.302 77.9613 79.2506 78.082 78.0974 78.082H77.3544C76.8231 78.082 76.3071 78.2728 75.902 78.6147C75.4975 78.9602 75.2292 79.4377 75.1448 79.962L75.0888 80.2654L74.1483 86.2058L74.1056 86.4239C74.0944 86.4929 74.0751 86.5274 74.0466 86.5507C74.019 86.5732 73.9845 86.5858 73.9489 86.5863H69.3616Z" fill="#253B80"/>
<path d="M85.4285 64.7701C85.4 64.9519 85.3675 65.1378 85.3308 65.3287C84.0724 71.7791 79.767 74.0074 74.2683 74.0074H71.4686C70.7962 74.0074 70.2295 74.4949 70.1247 75.1571L68.6913 84.2329L68.2854 86.8055C68.2692 86.9075 68.2754 87.0119 68.3035 87.1113C68.3316 87.2107 68.3809 87.3029 68.4481 87.3815C68.5153 87.46 68.5987 87.5231 68.6927 87.5664C68.7867 87.6097 68.8889 87.6322 68.9924 87.6322H73.958C74.5461 87.6322 75.0456 87.2056 75.1381 86.6267L75.187 86.3748L76.1219 80.4516L76.1819 80.1266C76.2735 79.5457 76.774 79.1191 77.362 79.1191H78.1047C82.9157 79.1191 86.6819 77.1691 87.7826 71.5262C88.2425 69.1689 88.0044 67.2006 86.7877 65.8163C86.402 65.388 85.9415 65.0335 85.4285 64.7701Z" fill="#179BD7"/>
<path d="M84.136 64.3246C83.7319 64.2086 83.3208 64.1181 82.9052 64.0536C82.084 63.9283 81.254 63.8683 80.4231 63.8739H72.9011C72.6149 63.8737 72.338 63.9751 72.1205 64.1598C71.903 64.3444 71.7593 64.6002 71.7153 64.8809L70.1152 74.9365L70.0691 75.2299C70.119 74.9097 70.2827 74.6179 70.5306 74.4071C70.7785 74.1964 71.0942 74.0806 71.4207 74.0808H74.2363C79.7663 74.0808 84.0961 71.8526 85.3617 65.4067C85.3996 65.2159 85.4313 65.0301 85.4599 64.8484C85.126 64.6746 84.7779 64.529 84.4194 64.4129C84.3254 64.382 84.231 64.3525 84.136 64.3246Z" fill="#222D65"/>
<path d="M71.7902 64.8467C71.8336 64.5649 71.9766 64.3079 72.1932 64.1226C72.4097 63.9373 72.6855 63.8358 72.9705 63.8367H80.4573C81.3443 63.8367 82.1722 63.8948 82.9278 64.0171C83.4391 64.0975 83.9434 64.2178 84.436 64.3769C84.8077 64.5002 85.1529 64.646 85.4716 64.8141C85.8464 62.4221 85.4686 60.7934 84.1763 59.3187C82.7517 57.6951 80.1803 57 76.8901 57H67.338C66.6659 57 66.0926 57.4892 65.9887 58.1547L62.0101 83.3949C61.9916 83.5121 61.9986 83.6319 62.0308 83.7461C62.0629 83.8603 62.1194 83.9662 62.1963 84.0565C62.2733 84.1467 62.3688 84.2193 62.4764 84.269C62.584 84.3188 62.7011 84.3447 62.8197 84.3448H68.7169L70.1975 74.9428L71.7902 64.8467Z" fill="#253B80"/>
<defs>
<filter id="filter0_d_310_570" x="0" y="0" width="287" height="276" filterUnits="userSpaceOnUse" color-interpolation-filters="sRGB">
<feFlood flood-opacity="0" result="BackgroundImageFix"/>
<feColorMatrix in="SourceAlpha" type="matrix" values="0 0 0 0 0 0 0 0 0 0 0 0 0 0 0 0 0 0 127 0" result="hardAlpha"/>
<feOffset dx="4" dy="6"/>
<feGaussianBlur stdDeviation="15"/>
<feComposite in2="hardAlpha" operator="out"/>
<feColorMatrix type="matrix" values="0 0 0 0 0.0753993 0 0 0 0 0.14181 0 0 0 0 0.179167 0 0 0 0.25 0"/>
<feBlend mode="normal" in2="BackgroundImageFix" result="effect1_dropShadow_310_570"/>
<feBlend mode="normal" in="SourceGraphic" in2="effect1_dropShadow_310_570" result="shape"/>
</filter>
<linearGradient id="paint0_linear_310_570" x1="-695" y1="-248.5" x2="283.544" y2="136.612" gradientUnits="userSpaceOnUse">
<stop stop-color="white"/>
<stop offset="1" stop-color="#14101D"/>
</linearGradient>
<linearGradient id="paint1_linear_310_570" x1="210.992" y1="97.3516" x2="222.466" y2="157.778" gradientUnits="userSpaceOnUse">
<stop offset="0.00887753" stop-color="#DEF9FA"/>
<stop offset="0.1723" stop-color="#BEF3F5"/>
<stop offset="0.4204" stop-color="#9DEDF0"/>
<stop offset="0.5512" stop-color="#7DE7EB"/>
<stop offset="0.7154" stop-color="#5CE1E6"/>
<stop offset="1" stop-color="#33BBCF"/>
</linearGradient>
<linearGradient id="paint2_linear_310_570" x1="172.133" y1="154.352" x2="176.593" y2="216.638" gradientUnits="userSpaceOnUse">
<stop offset="0.00887753" stop-color="#DEF9FA"/>
<stop offset="0.1723" stop-color="#BEF3F5"/>
<stop offset="0.4204" stop-color="#9DEDF0"/>
<stop offset="0.5512" stop-color="#7DE7EB"/>
<stop offset="0.7154" stop-color="#5CE1E6"/>
<stop offset="1" stop-color="#33BBCF"/>
</linearGradient>
<linearGradient id="paint3_linear_310_570" x1="207.537" y1="116.93" x2="212.959" y2="152.141" gradientUnits="userSpaceOnUse">
<stop offset="0.00887753" stop-color="#DEF9FA"/>
<stop offset="0.1723" stop-color="#BEF3F5"/>
<stop offset="0.4204" stop-color="#9DEDF0"/>
<stop offset="0.5512" stop-color="#7DE7EB"/>
<stop offset="0.7154" stop-color="#5CE1E6"/>
<stop offset="1" stop-color="#33BBCF"/>
</linearGradient>
</defs>
</svg>
